<svg height="169.33333mm" viewBox="0 0 900 599.99998" width="254mm" xmlns="http://www.w3.org/2000/svg"><path d="m0 0h900v600h-900z" fill="#124086"/><path d="m0 0h900v300h-900z" fill="#71d4ed"/><circle cx="450.00001" cy="300" fill="#fcd116" r="210.09464" stroke="#007a4d" stroke-linecap="round" stroke-linejoin="round" stroke-width="29.810726"/><g fill="#0f0f0f" transform="matrix(.94117721 0 0 .94117721 1328.992408 -521.712725)"><path d="m-1042.3505 750.56897c-10.2662 0-19.0781 8.8144-19.0781 19.0805v20.4258 94.9874 20.4281c0 10.2661 8.8119 19.078 19.0781 19.078h20.4281 94.9898 20.4234c10.2661 0 19.0804-8.8119 19.0804-19.078v-20.4281-14.625h-35.1445v14.625c0 2.7199-1.6394 4.3617-4.3593 4.3617h-94.9898c-2.7199 0-4.3617-1.6418-4.3617-4.3617v-94.9874c0-2.72 1.6418-4.3617 4.3617-4.3617h94.9898c2.7199 0 4.3593 1.6417 4.3593 4.3617v14.6273h35.1445v-14.6273-20.4258c0-10.2661-8.8143-19.0805-19.0804-19.0805h-20.4234-94.9898z"/><path d="m-961.3506 821.56938c-10.2661 0-19.078 8.8143-19.078 19.0804v20.4258 94.9875 20.428c0 10.2661 8.8119 19.0781 19.078 19.0781h20.4282 94.9898 20.4233c10.2661 0 19.0805-8.812 19.0805-19.0781v-20.428-14.625h-35.1445v14.625c0 2.7199-1.6394 4.3616-4.3593 4.3616h-94.9898c-2.7199 0-4.3617-1.6417-4.3617-4.3616v-94.9875c0-2.7199 1.6418-4.3616 4.3617-4.3616h94.9898c2.7199 0 4.3593 1.6417 4.3593 4.3616v14.6274h35.1445v-14.6274-20.4258c0-10.2661-8.8144-19.0804-19.0805-19.0804h-20.4233-94.9898z"/></g></svg>