<?xml version="1.0" encoding="utf-8"?>
<!-- Generator: Adobe Illustrator 23.0.1, SVG Export Plug-In . SVG Version: 6.00 Build 0)  -->
<svg version="1.1" id="fj" xmlns="http://www.w3.org/2000/svg" xmlns:xlink="http://www.w3.org/1999/xlink" x="0px" y="0px"
	 viewBox="0 0 1200 600" style="enable-background:new 0 0 1200 600;" xml:space="preserve">
<style type="text/css">
	.st0{fill:#002868;}
	.st1{stroke:#FFFFFF;stroke-width:60;}
	.st2{clip-path:url(#SVGID_2_);stroke:#CE1126;stroke-width:40;}
	.st3{stroke:#FFFFFF;stroke-width:100;}
	.st4{stroke:#CE1126;stroke-width:60;}
	.st5{fill:#68BFE5;}
	.st6{fill:#FFFFFF;}
	.st7{fill:#D21034;}
	.st8{fill:#FFFFFF;stroke:#000000;stroke-width:0.803;stroke-miterlimit:3;}
	.st9{fill:#FFFFFF;stroke:#000000;stroke-width:0.805;stroke-miterlimit:3;}
	.st10{fill:#FFD100;stroke:#000000;stroke-width:1.2;stroke-miterlimit:3;}
	.st11{fill:#FFFFFF;stroke:#000000;stroke-width:0.36;stroke-miterlimit:3;}
	.st12{fill:#FFFFFF;stroke:#000000;stroke-width:0.35;stroke-miterlimit:3;}
	.st13{fill:#00A651;stroke:#000000;stroke-width:0.78;stroke-miterlimit:4.8;}
	.st14{fill:#964B36;stroke:#000000;stroke-width:0.78;stroke-miterlimit:4.8;}
	.st15{fill:#964B36;stroke:#000000;stroke-width:0.42;stroke-miterlimit:4.8;}
	.st16{stroke:#000000;stroke-width:0.78;stroke-miterlimit:4.8;}
	.st17{fill:#FFFFFF;stroke:#000000;stroke-miterlimit:4.8;}
	.st18{fill:#964B36;stroke:#000000;stroke-width:0.48;stroke-miterlimit:4.8;}
	.st19{fill:#FFF200;stroke:#000000;stroke-width:0.48;stroke-miterlimit:4.8;}
	.st20{fill:#00A651;stroke:#000000;stroke-width:0.48;stroke-miterlimit:4.8;}
	.st21{fill:none;stroke:#000000;stroke-width:4.2;stroke-miterlimit:4.8;}
</style>
<path class="st0" d="M0,0h1200v600H0V0z"/>
<path class="st1" d="M0,0l600,300 M0,300L600,0"/>
<g>
	<defs>
		<path id="SVGID_1_" d="M0,0v150h700v150H600L0,0z M0,300v100h300V0h300L0,300z"/>
	</defs>
	<clipPath id="SVGID_2_">
		<use xlink:href="#SVGID_1_"  style="overflow:visible;"/>
	</clipPath>
	<path class="st2" d="M0,0l600,300 M0,300L600,0"/>
</g>
<path class="st3" d="M300,0v400 M0,150h700"/>
<path class="st4" d="M300,0v400 M0,150h700"/>
<path class="st5" d="M0,300h600V0h600v600H0V300z"/>
<g>
	<path class="st6" d="M778.8,143.9V349c0,67.1,121.2,106.9,121.2,106.9s121.2-39.8,121.2-106.9V143.9H778.8z"/>
	<path class="st7" d="M883.2,216v92.3H778.8v33.6h104.4v107.6l16.8,6.4l16.8-6.4V341.9h104.4v-33.6H916.8V216H883.2z"/>
	<path class="st7" d="M778.8,143.9h242.4v79.2H778.8L778.8,143.9z"/>
	<g>
		<g>
			<ellipse class="st8" cx="798.2" cy="192.2" rx="13.6" ry="11"/>
			<ellipse class="st9" cx="798.2" cy="186.5" rx="12.1" ry="6.1"/>
			<ellipse class="st9" cx="798.2" cy="198.8" rx="12.1" ry="6.1"/>
			<ellipse class="st9" cx="798.2" cy="192.2" rx="12.1" ry="6.1"/>
		</g>
		<path class="st10" d="M1015.2,207.4l-2-5.5c0,0-5.4-2.2-5.8-5.1c-1-7.7-3.7-10.6-7.8-11.7c-4.1-1.1-6.9,0.7-6.9,0.7
			c-1.2,1.8-7.4,1.8-10.9,1.9c-3.4,0.1-3.5-1.5-3.5-1.5c-2.7,0-3.8-1.9-3.8-1.9c-1.7-3.5-3-4.8-3.9-5.2c4.5,0.1,7.8-2,12.8-7.3
			c5.5-5.8,9.4-3.5,9.4-3.5c-2.7,5.4,0.9,4.9,0.9,4.9c7.3-3.7,1-13.1-1.2-12.6c-2.2,0.4-2.8-1.1-2.8-1.1c0.1,1.7-2.4,2.3-2.4,2.3
			c1.9-10.7-4.5-13.5-4.5-13.5c-1,1-1.5,2.9-1.5,2.9c-1.8,6.5-7.7,5.5-14.3,2.3c-6.6-3.2-24.2,3.3-29.7,5.5
			c-5.5,2.2-15.5,5.6-24.6,0.5c-9.1-5.1-11.3-4.1-14.8-3.2c-3.6,1-9.9,2.5-12.2,1.2c-2.3-1.2-5-1.3-5-1.3c0.6-0.4-0.4-1.8-0.4-1.8
			c-2.7-3.7,0.4-6,0.4-6s-5.1,1.4-3.1,10.2l0.9,1.3c0,0,0.7,2.7,2.2,3.6l-0.1,0.6c0,0,1.3-0.6,1.7,1.2c0.4,1.8,2.3,0.1,3.2-1.4
			c0,0-1.4,8,8.5,9.9c0,0-1.1-1.2-0.7-2.1c0.4-0.8-1.2-1.5-1.1-2.7c0.1-1.2-2.5-1.8-0.4-2.7c2.1-1,3-2.9,7.4-0.3s7.8,2.1,7.8,2.1
			s-2.7-5.5-1.2-5.5c1.5,0,8.1,8.2,11.4,7.8c3.3-0.4,9.6-4.1,12.8-2.7c0,0,0.3-1.6,12.4-3.7c12.1-2.1,27-8.1,32.6-2.8
			c0,0,0.7,4.2,3,5.3c0,0-0.4,8.7-15.4,3.8l-5.4-1.4c0,0-0.8-2.6-29.3,4.7c0,0-1.7,0.6-2.8,1.4c-1.1,0.8-2.6-0.4-8.2,1.6
			c-5.6,2.1-26.7,8.9-39.6,6.5l0,0c-2.8-0.8-5.5-0.4-5.6-0.9c-0.1-0.5,1.5,0.1,1.5,0.1c-1-1.1-1.4-1.2-1.4-1.2
			c-10.9-1.2-8.9-6.1-8.9-6.1l0.6,1.5c1.8-2.3-0.7-7.8-0.7-7.8l-0.1,0c0-0.2-0.1-0.3-0.1-0.5l0.9-0.6c5.2-4.4,11.3-5.2,11.3-5.2
			c-3.6-4.4-11.1-2.1-11.1-2.1c0.1-5.4-2.1-11.5-2.1-11.5c-7.4,0.8-11.7,7-11.7,7c-0.3-5.5-7.3-8.7-7.3-8.7c2.6,3.2,1,10.7,1,10.7
			l0.3,0.1c-0.4,0-0.7,0-0.7,0l-0.2,1.6l-0.3-0.1c0,0-2.6,1-5.6,7.8c0,0-0.3,1.6-1.5,3.1c0-0.2,0-0.4,0-0.6c0,0-3.4,4.4-11.2,0
			c0,0-10.6-6.3-14.3-6.1c-3.7,0.2-6.2,2-5.9,3c0,0-8.5-0.7-11.4,4.2c0,0-6.4,2.3-0.9,7.6c0,0,0.7,2.3,2.3,3.5c0,0-0.2-4.8,0.9-3.4
			c0,0,0.3,0.5,0.9,0.8c0.2,0.7,0.7,2.5,1.8,3.5l0.8-0.3c0.1-1.2,0.4-2.7,0.6-3.3c0.1,0,0.2,0,0.3,0c0,0-0.1,0.1-0.1,0.1l1.5,2.3
			l1.7-0.9c0.8-0.1,1.9,0.7,1.9,0.7l2-1.6c0,0,0,0,0,0c2,0.3,2.5-3.5,2.5-3.5c1.8,0.5,3.4-0.1,4.8-0.9c0.8,3.1,7.8,6.5,7.8,6.5
			s0.1,0,0.3,0c-0.6,0.4-0.9,0.7-0.9,0.7c3.2,2.2,9.1,1.7,9.1,1.7c-2.5,1-2.1,5.5-2.1,5.5c-1.4,0.6-1.6,2-1.6,2
			c4.8,1.9,8.1,0.3,8.1,0.3c0.3,1.6-0.1,1.7-0.1,1.7c-1.9,4.1-2.7,8.1-2.7,8.1c0,0,0.1,0,0.1,0c-0.1,0.1-0.1,0.2-0.2,0.3
			c0,0-8.4,2.9-12.1,7c0,0-0.4-1.2-1.4-1.2c-1,0-4.3-2.7-5.8-3.1c-1.5-0.5-3.7,0.5-4.3-0.2c-0.5-0.6-0.3-5.4-1.3-6.2c0,0,0,0,0,0
			l-1-2.9c-0.7,1.5-3.6,1.2-3.6,1.2c-0.1,0.1-0.6,0.4-1.2,0.9c-0.6,0-1.2-0.2-1.2-0.2c-0.3,0.1-0.6,0.9-0.8,1.7
			c-0.1,0.1-0.2,0.2-0.4,0.3V199c-0.6,0.5-1.7-0.2-2.2-0.2c-0.2,0-0.5,0.7-0.7,1.4c-1.2,0.2-2.8,0.3-2.8,0.3
			c-0.5,0.2-0.1,3.8-0.1,3.8c-3.4,1.9-1.7,4.7-1.7,4.7c1.9,9.1,17.3,5,18.5,6.2c1.2,1.2,3.8,1.4,5.2,1.4c1.4,0,3.1,3.4,5.1,3.7
			c2,0.4,0-2.7,9.2-4.9c9.2-2.2,12.2-6,12.2-6c2.9-0.6,3.7-4,3.9-5.5c0,0.7,0.1,1.4,0.2,2.2c0.4,3.2-1.8,4.3-1.8,4.3l8-2.4
			c3.2-0.8,2.7-3.6,2.7-3.6c3,8.7,8.5,9.2,8.5,9.2c1.1-3.3,1-4.3,1-4.3l2.5-0.1c0.1-1.9-1.5-3.2-2.5-3.9l3.9,2.3l1.5-0.3
			c0,1.4,2.1,2.6,2.1,2.6l0.3-1.8c1.8,2.3,5.1,1.5,5.1,1.5c-0.1-0.4-0.2-0.8-0.3-1.3c7,4.3,18.3-1.2,18.3-1.2c3,0.7,3.4-1.1,3.4-1.1
			c3.4,0.4,4.2-1.9,4.2-1.9c8.1-0.7,13.8-6.4,13.8-6.4c4-0.3,4.1-3.1,4.1-3.1s4,0.8,7.8-4c8.9-12.8,22.3-6.1,22.3-6.1l-7.7,0.5
			c-20.2-0.1-11.8,13.6-11.8,13.6l1.2-0.1c1.9,0.4,8.5,5.6,6.1,9.5c0,0.1-0.1,0.1-0.1,0.2c-4.1,5.6-11.7,0.3-13.9-4.5
			c-2.2-4.8-6.6-3.7-6.6-3.7s-11.4,1.9-6.7,11l0.2,0c0.1,2.2,1.5,4.7,5.5,7.2c2.3,3.2,9.8,3.6,15.3,2.4c2.6-0.6,16.1-6.4,16.1-6.4
			c1-2.9,4.4-2.3,7.4-6.5s-4.3-5.8-5.9-8.1c-1.7-2.3,0.4-1.9,0.4-1.9c6.6,3.6,7.1-7.8,7.1-7.8c0.7,6.6,6.5,8.4,6.5,8.4
			c3.6-3.6,1-10.9,1-10.9c8.5,15.3,13.7,12.8,13.7,12.8c-4.6-2.8-2.3-6.6-2.3-6.6c4.1,16.2,21,2.1,21,2.1c-0.8,2.3,0,3.7,1.5,5.2
			c1.5,1.5,3.3,2.2,2.5,4.9c-0.8,2.7-8.7,2.2-8.7,2.2s-7.7-0.4-7,6c0.4,1.5,5.5,2.1,7.4,1.6c0,0-0.8,0.2,2.1,0.6
			c1,0.1,2.1,0.1,3.3,0.1c3.3-0.1,6.8-0.7,6.8-0.7c4.4-1,3.7-2.5,3.7-2.5C1014.5,212,1015.2,207.4,1015.2,207.4L1015.2,207.4z"/>
		<path d="M792,179.3c0,0,0.4-0.8,1-0.9c0.5-0.1,1.2,0.3,1.8,1.1l0.4-0.3c0,0-1.8-2.6-1.1-4.5c0.3-0.8,1.1-1.4,2.4-1.7l-0.1-0.5
			c-1.4,0.3-2.3,1-2.7,2c-0.1,0.4-0.2,0.8-0.2,1.1c0,0.9,0.3,1.8,0.6,2.5c-0.4-0.3-0.8-0.4-1.2-0.3c-0.7,0.1-1,0.6-1.2,0.9
			L792,179.3z"/>
		<path d="M1004,215.3c-4.6,0.7-11.3,1.1-11.9-0.3c-0.1-0.2-0.1-1.2,3.6-3.7l-0.4-0.7c-3.1,2-4.4,3.5-4,4.6c1,2.5,10.8,1.1,12.8,0.8
			L1004,215.3z"/>
		<path d="M916.2,217.9c-1-1.6-0.6-3.8,1.4-6.5l-0.7-0.5c-2.2,3-2.7,5.5-1.4,7.4L916.2,217.9z"/>
		<path d="M910,211c0.1,2.8,2.1,5.3,5.8,7.6l0.4-0.7c-3.5-2.1-5.3-4.5-5.4-7c-0.1-3.8,3.9-6.8,3.9-6.8l-0.5-0.7
			C914.1,203.7,909.8,206.8,910,211L910,211z"/>
		<path d="M988.3,212.1c-1.3,1.9-0.8,4.1-0.8,4.2l0.8-0.2c0,0-0.4-2,0.7-3.6c0.6-0.9,1.7-1.6,3.1-1.8l-0.1-0.8
			C990.3,210.2,989.1,210.9,988.3,212.1z"/>
		<path d="M808.9,176.9l-0.2-0.1l0,0.3c0,0-0.4,2.5-1.5,3.1c-0.3,0.2-0.6,0.2-1,0.1l-1.9-1.1c-0.4-0.3-0.7-0.6-1.2-0.4
			c-0.1-0.1-0.5-0.7-0.5-1.7c0-0.1,0-0.2,0-0.3c0.1-1.1,0.9-2.2,2.3-3.2l-0.3-0.4c-1.5,1.1-2.3,2.2-2.5,3.5
			c-0.2,1.4,0.7,2.4,0.7,2.4l0.1,0.1l0.2-0.1c0.4-0.2,0.5-0.1,0.9,0.3l2,1.2c0.5,0.2,1,0.2,1.4-0.1c1.1-0.7,1.5-2.7,1.6-3.2
			c4.9,1,8.8-4.9,9-5.1l-0.4-0.3C817.6,172,813.6,178.1,808.9,176.9L808.9,176.9z"/>
		<path d="M797.2,176c-0.2,1-0.1,2,0.5,2.9c0.5,0.9,1.1,1.3,1.6,1.4c0.7,0.1,1.2-0.4,1.7-0.8c0.3-0.3,0.7-0.6,0.9-0.6l0.4,0.3
			l0.4-0.3l-0.7-0.5c-0.5,0-0.9,0.3-1.3,0.7c-0.4,0.4-0.9,0.8-1.3,0.7c-0.4-0.1-0.8-0.5-1.3-1.2c-0.5-0.8-0.6-1.7-0.4-2.5
			c0.5-2.2,3.1-3.8,3.2-3.8l-0.2-0.4C800.5,172,797.8,173.6,797.2,176z"/>
		<path d="M790.5,207c0.2-0.8,0.9-1.6,1.9-2.1c-0.2,0,1,1,2.1,0.9c0,0,0.4-0.2,0.7-0.4c0.3,0.2,2.1,1.9,2.1,4c0,0.4-0.1,0.9-0.3,1.4
			l0.4,0.2c1.3-3.1-2-5.9-2-6l-0.1-0.1l-0.2,0.1l-0.6,0.3c-0.9,0.1-2-0.8-2-0.8c-1.4,0.6-2.1,1.4-2.4,2.4L790.5,207z"/>
		<path d="M806,199c-1,0.1-3.8,0.6-4.7,2.1c-0.3,0.5-0.4,1.1-0.1,1.7l0.4,1c0.9,2.3,1.8,4.8,2.8,5.3l0.2-0.4
			c-0.8-0.5-1.7-2.9-2.6-5.1l-0.4-1c-0.2-0.5-0.2-0.9,0.1-1.3c0.8-1.2,3.3-1.8,4.4-1.9c0.6-0.1,0.8,2.3,1,3.7l0.5,0
			C807.3,201.1,807.1,198.9,806,199L806,199z"/>
		<path d="M798.4,201.3c-0.6,0.5-0.5,1.3-0.5,1.4c0,0.2,0.3,6.1,3,7.3l0.2-0.4c-2.5-1.1-2.8-6.8-2.8-6.9c0,0-0.1-0.6,0.3-1
			c0.4-0.4,1.3-0.4,2.4-0.1l0.1-0.4C799.9,200.7,798.9,200.8,798.4,201.3L798.4,201.3z"/>
		<path d="M796.2,201.8c-1.2,0.9-1.2,3.3-1.2,3.4l0.5,0c0,0,0-2.3,1-3c0.4-0.3,0.9-0.3,1.5,0l0.2-0.4
			C797.3,201.4,796.7,201.4,796.2,201.8L796.2,201.8z"/>
		<path d="M862.3,169.5c0,0,1.3,2.9,1.3,5.3c0,0.4-0.2,0.7-0.3,1.1c-0.1-0.1-0.5-1.4-0.5-1.4l-0.4,1c0,0.1-0.5,1.4,0.4,2.9
			c1.2,2,4.2,3.2,8.9,3.8h0c0,0,0.1,0.1,0.1,0.1c-0.2,0-0.3,0.1-0.4,0.1l-0.2,0.2l0,0.4c0.1,0.5,0.7,0.5,1.8,0.6
			c0.2,0,0.5,0.1,0.7,0.1c0.3,0.1,0.6,0.2,0.6,0.2s-0.1-0.1-0.1-0.1c1.1,0.1,2.3,0.3,3.6,0.8c-0.3,0.1-1,0.3-1,0.3l1.2,0.5
			c0.1,0,8.6,3.5,12.2,6.3c-1,0.9-5.3,4.1-12.7,2.2l-1.2-0.3l0.8,1c0.1,0.1,4.9,5.6,5.9,9c-1.7,0-8.2,0-10.5-2l-0.6,0.5
			c0,0,3.1,4.6,3.8,8.1c-0.9,0.1-3,0.2-4.3-1.4l-0.6-0.8c0,0-0.2,1.5-0.3,2c-0.6-0.5-1.4-1.1-1.4-1.9v-0.5c0,0-1.6,0.3-1.8,0.3
			c-0.2-0.1-2.8-1.7-3.8-2.3c-0.3-0.2-0.5-0.3-0.6-0.4c0,0,0,0,0,0l0,0l-0.4,0.7c0,0,0.4,0.3,0.6,0.3c0.8,0.5,2.2,1.7,2.3,3.2
			c-0.6,0-2.4,0.1-2.4,0.1l0,0.4v0.1c0,0.3-0.1,1.3-0.8,3.7c-1.2-0.3-5.4-1.7-7.9-8.9l-0.8,0.2c0,0,0,0.1,0,0.3
			c0,0.6-0.2,2.3-2.5,2.9c0,0-4.2,1.2-6.5,1.9c0.4-0.6,0.8-1.5,0.8-2.7c0-0.3,0-0.5-0.1-0.8c-0.1-1-0.2-1.9-0.2-2.6
			c0-1.5,0.4-2.4,1.4-3l-0.4-0.7c-0.1,0-9.6,3.8-14.3,2.3c0.2-0.9,1-4.2,2.6-7.6l-0.2,0.2c0.3-0.1,0.6-0.6,0.4-2.2l-0.1-0.5
			l-0.5,0.2c0,0-3.1,1.4-7.4-0.2c0.1-0.4,0.3-1,1.2-1.4l0.3-0.1l0-0.3c0,0,0-0.2,0-0.5c0-1.2,0.2-3.9,1.9-4.6l-0.2-0.8
			c-0.1,0-5.2,0.4-8.3-1.3c0.8-0.6,2.5-1.6,4.5-1.9l0.3,0l0-0.3c0,0,0-0.1,0-0.3c0-0.4-0.2-1.2-0.5-2c1.2,0.3,2.6,0.6,3.1,0.2
			l0.2-0.1l-0.1-3.1l-0.8,0c0,0,0.1,2.1,0.1,2.6c-0.5,0-1.8-0.2-3-0.6l-1.2-0.4l0.8,1c0.6,0.8,0.7,1.9,0.7,2.3
			c-2.8,0.5-5,2.3-5.1,2.3l-0.4,0.3l0.4,0.3c2.4,1.7,6.2,1.8,8.1,1.8c-1.1,1.3-1.3,3.4-1.3,4.5c0,0.2,0,0.3,0,0.4
			c-1.4,0.7-1.6,2.1-1.6,2.2l0,0.3l0.3,0.1c4.1,1.6,6.9,0.9,7.9,0.5c0,0.1,0,0.3,0,0.4c0,0.4-0.1,0.5-0.1,0.5
			c-2,4.2-2.9,8.3-2.9,8.3l-0.1,0.3l0.3,0.1c3.8,1.5,10.7-0.6,13.8-1.6c-0.4,0.7-0.6,1.5-0.6,2.4c0,0.8,0.1,1.7,0.2,2.7
			c0,0.3,0,0.5,0,0.7c0,2.3-1.5,3.1-1.6,3.2l0.3,0.7l8-2.4c1.8-0.5,2.5-1.6,2.8-2.5c3.1,7.4,8.1,8.1,8.3,8.1l0.3,0l0.1-0.3
			c0.8-2.3,0.9-3.4,1-4c0.5,0,2.5-0.1,2.5-0.1l0-0.4c0-0.1,0-0.1,0-0.2c0-0.7-0.2-1.2-0.5-1.8c0.5,0.3,1.4,0.8,1.4,0.8
			s0.9-0.2,1.3-0.2c0.3,1.3,1.9,2.4,2.1,2.5l0.5,0.3c0,0,0.2-1.2,0.3-1.7c2,1.8,4.8,1.2,4.9,1.2l0.4-0.1l-0.1-0.4
			c-0.4-2.7-2.2-5.9-3.3-7.6c3.5,1.6,9.8,1.5,10.2,1.5l0.5,0l-0.1-0.5c-0.6-2.8-4.1-7.3-5.6-9c8.2,1.5,12.6-2.7,12.8-2.9l0.3-0.3
			l-0.3-0.3c-2.8-2.4-9.1-5.2-11.7-6.3c0.1,0,0.9-0.2,0.9-0.2l-0.9-0.5c-2.1-1.2-4.4-1.3-5.9-1.4l0,0c-1-1.1-1.5-1.3-1.6-1.3
			c-5.5-0.6-7.6-2.2-8.3-3.4c-0.1-0.1,0-0.2-0.1-0.3c0.1-0.2,0.2-0.3,0.2-0.3c0.5-0.7,0.7-1.6,0.7-2.6c0-2.5-1.3-5.5-1.4-5.6
			L862.3,169.5L862.3,169.5z"/>
		<path d="M836.8,167.9c0,0.1-0.6,3.1-3.2,4.5c-1.9,1.1-4.5,1-7.6-0.3l-0.4-0.1l0,0.4c0,0.1,0.2,1.9,1.9,3.2
			c1.4,1.1,3.4,1.5,5.9,1.2c-0.8,1-3.5,4.5-3.5,7.8c0,0.2,0,0.4,0,0.5c0.3,0.2,4.6,1.4,6.5-1.1c0.1,1.1,0.4,4.5,1.7,5.9
			c0.7,0.7,0.9,1.8,0.9,2.7c0,0.8-0.1,1.4-0.1,1.4l-0.2,0.6l0.5-0.4c0.2-0.1,4.1-3,5.3-6.7c0,0,0.6-0.9,1.8-1.3c0,0.2,0,0.3,0,0.6
			c0,1.4,0.6,4.1,4.8,5.7l0.3,0.1l0-0.4c0,0,0-0.3,0-0.7c0-1.1,0.1-3,1.2-4c0.7-0.7,0.9-1.4,0.9-2c0-0.5-0.1-0.9-0.2-1.2
			c0.8,0.2,2.9,0.9,3.7,2.4c1.2,2.2,5.3,0.5,5.5,0.4l-0.1-0.4c0,0-1.7,0.4-2.8-0.4c-0.5-0.3-0.8-0.8-0.9-1.5l-0.2-2.3
			c0-1-0.2-1.7-0.7-2.3c0.5-0.1,1.7,0,2.1,1c0.7,1.6,3.3,1.8,3.4,1.8l0.9,0l-0.7-0.5c0,0-2.2-1.5-1.8-3.3l0.3-1.4
			c0.6-2.5,1.6-6.6,0.8-9.2l-0.4,0.1c0.2,0.6,0.3,1.4,0.3,2.2c0,2.3-0.6,4.9-1.1,6.7l-0.3,1.4c0,0.2-0.1,0.4-0.1,0.5
			c0,1.2,0.8,2.1,1.4,2.7c-0.7-0.2-1.8-0.5-2.2-1.4c-0.6-1.3-2.2-1.4-3-1.2l-0.5,0.1l0.5,0.3c0.7,0.5,0.8,1.1,0.8,2.3l0.2,2.4
			c0.1,0.8,0.5,1.4,1.1,1.8c0.5,0.4,1.1,0.4,1.7,0.4c-1.2,0.3-2.9,0.5-3.5-0.6c-1.1-2.1-4.3-2.7-4.4-2.7l-0.5-0.1l0.2,0.4
			c0,0,0.4,0.7,0.4,1.4c0,0.5-0.2,1.2-0.7,1.7c-1.1,1.1-1.3,3.2-1.3,4.3c0,0.2,0,0.3,0,0.4c-3.6-1.5-4.2-3.7-4.2-5
			c0-0.5,0.1-0.9,0.1-0.9l0.1-0.4l-0.4,0.1c-1.7,0.3-2.5,1.7-2.5,1.8c-1,3-3.7,5.4-4.7,6.1c0-0.2,0.1-0.5,0.1-0.9c0-0.9-0.2-2.1-1-3
			c-1.4-1.4-1.6-6-1.6-6l0-0.8l-0.4,0.7c-1.6,2.8-6.2,1.5-6.2,1.5c-0.2-3.6,3.9-8.2,3.9-8.2l0.4-0.5l-0.6,0.1
			c-2.7,0.4-4.7,0-6.1-1.1c-1.1-0.9-1.5-1.9-1.6-2.5c3.1,1.1,5.7,1.2,7.6,0.1c2.8-1.5,3.4-4.7,3.4-4.8c2.9-6.6,5.5-7.6,5.5-7.7
			l-0.2-0.4C842.5,159.9,839.8,161,836.8,167.9L836.8,167.9z"/>
		<path d="M843.5,158.1l-0.2,0l-2.4,3.2l0.7,0.1c12.8,1.2,19.6,9,19.7,9.1l0.3,0.3l2.3-2.5l-0.2-0.3
			C857.2,157.8,843.6,158.1,843.5,158.1L843.5,158.1z M843.7,158.9c1.6,0,13.3,0.4,19.2,9.3c-0.3,0.3-0.9,1-1.3,1.4
			c-1.4-1.4-8-7.6-19.2-8.9C842.8,160.1,843.5,159.1,843.7,158.9L843.7,158.9z"/>
		<path d="M841.6,164.8c-1.1,1.5-2.1,3.7-2.1,4.7c0,0.2,0,0.4,0.1,0.5c0,0,0,0,0.1,0c-1.3,1.2-2.1,3.2-2.1,5.5
			c0,1.2,0.2,2.5,0.7,3.8l0.3,0.7c1.3,3.4,2.3,6.4,7.8,4.6c5.2-1.7,5.4-2,6.8-4.2l0.3-0.6c0.7-1.2,1.5-1.4,2.3-1.7
			c1-0.3,2-0.6,2.9-2.4l0.9-1.3c1-1.3,2.1-2.9,2.3-5l-0.5,0c-0.1,1.9-1.3,3.5-2.2,4.8l-0.9,1.4c-0.8,1.6-1.7,1.9-2.7,2.2
			c-0.9,0.3-1.8,0.5-2.6,1.9l-0.3,0.6c-1.3,2.1-1.4,2.4-6.5,4c-5,1.6-5.9-0.9-7.2-4.4l-0.3-0.7c-1.4-3.8-0.3-7.7,1.6-9l0.6-0.5
			c0,0-0.8,0.1-0.9,0.1c0,0,0-0.1,0-0.1c0-0.6,0.7-2.6,2-4.5c1.2-1.6,3.9-3.1,3.9-3.2l-0.2-0.4C845.5,161.6,842.8,163.2,841.6,164.8
			L841.6,164.8z"/>
		<path d="M839.2,178.6c0.9,0.6,2.2,0.6,3.7,0c0,0.5,0.1,1.7,1.1,2.5c1.1,1,3,1.2,5.5,0.6l-0.1-0.4c-2.4,0.6-4.1,0.4-5.1-0.5
			c-1.1-0.9-0.9-2.5-0.9-2.5l0-0.4l-0.4,0.2c-1.5,0.7-2.7,0.7-3.6,0.1c-1.5-1-1.4-3.8-1.4-3.8l-0.5,0
			C837.6,174.6,837.5,177.5,839.2,178.6L839.2,178.6z"/>
		<path d="M842.1,175c-0.7,0.2-0.8,0.7-0.8,1.1c0,0.1,0,0.2,0,0.3c0.1,1.2,1.4,2,2.6,2.3c1.1,0.3,2.5,0.3,3.1-0.4
			c0.2-0.3,0.4-0.8-0.1-1.6C845.1,173.8,842.2,174.9,842.1,175L842.1,175z M844,178.3c-1-0.3-2.1-1-2.2-1.9c0-0.1-0.1-0.8,0.4-0.9
			l0,0c0.1,0,2.6-1.1,4.2,1.6c0.3,0.5,0.3,0.8,0.1,1.1C846.2,178.5,845.1,178.6,844,178.3L844,178.3z M842,175
			C842,175,842.1,175,842,175L842,175z"/>
		<path d="M843.7,181c-0.3,2.5-0.1,2.6,0.1,2.6l0.2,0.1l0.2-0.2l1.5-1.9l-1.8-0.9L843.7,181z M844.1,181.4c0.3,0.1,0.5,0.2,0.7,0.3
			c-0.2,0.3-0.6,0.7-0.8,1.1C844,182.4,844,181.9,844.1,181.4L844.1,181.4z"/>
		<path d="M839.9,179l-0.1,2.4l2-2.4l-1.9-0.2L839.9,179z M840.3,179.2c0.2,0,0.3,0,0.6,0.1c-0.2,0.2-0.3,0.4-0.6,0.7
			C840.3,179.6,840.3,179.4,840.3,179.2L840.3,179.2z"/>
		<path d="M838.5,178.2c0,0,1.5,2.9,1.7,3.9c0.2,0.7,1,1.4,2,1.8c1,0.4,2,0.3,2.7-0.2l1.3-1.1c0.4-0.4,0.6-0.5,0.9-0.5l0.1-0.5
			c-0.6-0.1-0.9,0.2-1.3,0.6l-1.3,1.1c-0.8,0.5-1.7,0.3-2.2,0.1c-0.9-0.4-1.6-1-1.7-1.5c-0.3-1.1-1.7-3.9-1.8-4L838.5,178.2z"/>
		<path d="M840.4,169.6c-1.6,0.7-2.3,2.7-2.3,2.8l0.4,0.2c0,0,0.7-1.9,2.1-2.5c0.7-0.3,1.5-0.3,2.3,0l0.2-0.4
			C842.2,169.2,841.3,169.2,840.4,169.6z"/>
		<path d="M851.3,174.8c0.1,0.1,3.2,2.4,1.4,5.2l0.4,0.2c2-3.2-1.5-5.8-1.5-5.9L851.3,174.8z"/>
		<path d="M842.1,175.2c0,0-0.5,1.7,2,2.3c0,0-2.3,0-2.4-0.6C841.5,176.3,841.7,175,842.1,175.2z"/>
		<path d="M849.6,177.3c0,0.1-0.1,0.3-0.3,0.3c-0.1,0-0.3-0.1-0.3-0.3c0-0.1,0.1-0.3,0.3-0.3C849.4,177,849.6,177.1,849.6,177.3z"/>
		<path d="M849.8,178.4c0,0.1-0.1,0.3-0.3,0.3s-0.3-0.1-0.3-0.3c0-0.1,0.1-0.3,0.3-0.3S849.8,178.2,849.8,178.4z"/>
		<circle cx="848" cy="177.8" r="0.3"/>
		<path d="M848.8,179.4c0,0.1-0.1,0.3-0.3,0.3c-0.1,0-0.3-0.1-0.3-0.3c0-0.2,0.1-0.3,0.3-0.3C848.6,179.2,848.8,179.3,848.8,179.4z"
			/>
		<path d="M841.7,172.1c0,0.1-0.1,0.3-0.3,0.3c-0.1,0-0.3-0.1-0.3-0.3c0-0.1,0.1-0.3,0.3-0.3C841.5,171.9,841.7,172,841.7,172.1z"/>
		<circle cx="841.7" cy="173.2" r="0.3"/>
		<circle cx="840.1" cy="172.7" r="0.3"/>
		<path d="M840.8,174.3c0,0.1-0.1,0.3-0.3,0.3c-0.1,0-0.3-0.1-0.3-0.3c0-0.2,0.1-0.3,0.3-0.3C840.7,174,840.8,174.1,840.8,174.3z"/>
		<path d="M845.6,164.8c0,0,3.5,2.2,0.1,6.2c0,0,1.7-1.2,1.8-3.4C847.7,165.5,846.3,163.8,845.6,164.8z"/>
		<path d="M859.1,170.6c-1.1,0.6-2.8-0.5-3.6-1.5c-0.8-1-2.5-1.3-3.5,0.6c-1,1.9-2.6,2.6-2.6,2.6s1.5-0.9,3-2.5
			c1.5-1.6,2.4-0.3,3.9,0.5s1.7,1,2.8,0.6L859.1,170.6z"/>
		<path d="M858.8,170.9c-0.5,0.3-1.3,0.6-2.2-0.1c-0.9-0.7-1.7-1.7-2.8-1.1c-1.1,0.6-3.3,2.2-3.3,2.2s3.5-2.4,4.2-1.9
			c0.7,0.5,2.2,1.8,3.2,1.4C858.8,171,858.8,170.9,858.8,170.9L858.8,170.9z"/>
		<path d="M856.1,172.3c-1.1-0.8-2.2,1-3.1,0.8c-0.9-0.2-1.7-1.8-1.7-1.8s0.9,1.6,2.1,1.3c1.2-0.4,2.1-1.1,2.8-0.6
			C856.9,172.6,856.1,172.3,856.1,172.3z"/>
		<path d="M854.4,172.6c-2.2,0.2-2.4-1.8-2.4-1.8c0,0,0.7,1.8,2.6,1.5L854.4,172.6z"/>
		<path d="M854.3,171.2c0.1,0.6,0.1,0.8-0.5,0.8c-0.6,0-1-0.2-1-0.8C852.8,170.6,854.2,170.8,854.3,171.2z"/>
		<path d="M846.5,168.1c0,0.4-0.3,0.7-0.7,0.7s-0.5-0.3-0.5-0.6s0.1-0.7,0.5-0.7S846.5,167.8,846.5,168.1z"/>
		<path d="M844,165.7c0,0,3.7,0,1.9,4.7c0,0,1.4-2.3,0.5-4c-0.9-1.7-2.3-1.3-2.3-1.3S843.8,165.5,844,165.7z"/>
		<path d="M843.9,167.6c0,0.9,0.6,1.9,1.9,2.9l0.3-0.4c-1.1-0.9-1.7-1.7-1.7-2.5c0-0.8,0.6-1.3,0.6-1.3l-0.3-0.4
			C844.7,166,844,166.6,843.9,167.6L843.9,167.6z"/>
		<path d="M844.8,168.4c0.2,0.5,0.6,0.9,1.2,1.2l0.2-0.4c-0.5-0.2-0.9-0.5-1-0.9c-0.2-0.8,0.4-1.7,0.4-1.7l-0.4-0.3
			C845.2,166.3,844.5,167.4,844.8,168.4L844.8,168.4z"/>
		<path d="M849.9,171c0,0,0.7,1.5-0.3,3.1c-1,1.6-1,1.5-1,1.5s1.2-2.2,0.8-3.2C848.9,171.6,849.9,171,849.9,171L849.9,171z"/>
		<path d="M864.5,186.8c3.8,0.7,12.5,7.5,12.6,7.6l0.5-0.6c-0.4-0.3-8.9-7-12.9-7.7L864.5,186.8z"/>
		<path d="M867.9,196.4c0.3,3.4,4,5.5,4.1,5.6l0.4-0.7c0,0-3.5-2-3.7-5L867.9,196.4z"/>
		<path d="M858.7,197.1c0,3.8,3.6,8.5,3.7,8.6l0.6-0.5c0,0-3.6-4.6-3.6-8.2H858.7z"/>
		<path d="M846.5,197.5c0.6,1.3,0.6,1.9,0.4,2.2c-0.2,0.4-0.6,0.4-0.6,0.4l0.1,0.8c0.3,0,0.9-0.2,1.2-0.8c0.4-0.7,0.3-1.7-0.4-3
			L846.5,197.5z"/>
		<g>
			<path class="st11" d="M791.9,178.6c0,0,0.2,2.6,2.2,4.1c0,0-0.2-2.8,0.4-4C794.4,178.7,793.4,177.6,791.9,178.6L791.9,178.6z"/>
			<path class="st11" d="M795.8,180.3c0,0,0.5,2.3,1.9,3.4l0.8-0.2c0,0,0.3-2.9,0.8-3.3C799.8,179.8,797.3,181.2,795.8,180.3z"/>
			<path class="st11" d="M799.3,180.1l1.5,2.3l1.7-0.9l-0.3-2.8C802.2,178.7,801.2,178.5,799.3,180.1L799.3,180.1z"/>
			<path class="st11" d="M806.4,180.6l-2,1.6c0,0-1-0.8-1.9-0.7l0.4-2.6C802.9,179,804.3,177.9,806.4,180.6L806.4,180.6z"/>
			<path class="st11" d="M792.3,204.7c0,0-0.3-3.6,0.1-3.8c0,0,1.4,0.5,2-0.1c0,0,0.8,2.9,0.6,4.1
				C794.8,206,793.4,205.5,792.3,204.7L792.3,204.7z"/>
			<path class="st11" d="M801.3,201c0,0-0.1-3,0.5-3.4c0,0,2.9,0.4,3.6-1.2l1,2.9C806.4,199.3,803.2,199,801.3,201z"/>
			<g>
				<path class="st12" d="M798.2,201.6c0,0,0.6-3.1,1.2-3.3c0,0,1.5,0.5,2-0.1l-0.1,3.8C801.2,202,801.3,200.4,798.2,201.6
					L798.2,201.6z"/>
				<path class="st12" d="M794.8,202c0,0,0.7-2.8,1.2-2.8c0.5,0,1.6,0.7,2.2,0.2v2.1c0,0-2.6-0.6-2.9,2.9L794.8,202z"/>
			</g>
		</g>
	</g>
	<g>
		<g>
			<path class="st13" d="M840.2,260c0,0,7.9,7.4,5.8,13.8c0,0,5.1-10.9-0.4-14.1C840.2,256.4,840,258.9,840.2,260L840.2,260z"/>
			<path class="st14" d="M830.2,267.1c0,0-2.1,2.8,0.2,4.9c0,0-2.4,3.6-0.6,6.6c0,0-1.5,3.2-1.1,6.6c0,0-1.3,5.3,1.5,7.7
				c0,0,3,1.5,4.3,0.2c0,0,2.6-4,0.9-8.1c0,0,1.9-3.4-0.2-7.7c0,0,0.6-2.5-1.1-5.3c0,0,1.1-1.9,0.2-3.4
				C834.3,268.7,830.5,264.7,830.2,267.1L830.2,267.1z"/>
			<path class="st13" d="M832.4,257.9c0,0-9.4-18.1-16-18.8c-6.6-0.8-7-7.2-7-7.2s0.8,3,6,3c5.3,0,15.5,7.3,16.6,13
				c1.1,5.7,2.3,4.9,2.3,4.9L832.4,257.9L832.4,257.9z"/>
			<path class="st13" d="M832.4,256.6c0,0,3.4-22.8,18.3-23.2c14.9-0.4,10,1.1,13.6-1.3c0,0-10,5.3-16.2,6
				c-6.2,0.8-11.3,12.8-11.1,15.1c0.2,2.3-3.4,6.6-5.1,5.1C830.2,256.8,832.4,256.6,832.4,256.6L832.4,256.6z"/>
			<path class="st13" d="M835.8,265.1c0,0,3.4-9,9.2-6c0,0-4.5-8.7-12.6-1.1C832.4,257.9,836,262.8,835.8,265.1L835.8,265.1z"/>
			<path class="st13" d="M824.5,256c0,0,4.9,20.2-2.6,26.4c0,0,0.2-10.4-4.3-16.6C813,259.6,822.1,252.8,824.5,256L824.5,256z"/>
			<path class="st13" d="M825.1,259.6c0,0,8.9,8.5,9.4,11.3c0.6,2.8,2.6-8.5-1.5-11.7c-4.1-3.2-8.7-3.8-8.7-3.8L825.1,259.6z"/>
			<path class="st14" d="M808.7,281.9c0,0,0.8,3.6,3,4.2c0,0,0.1,2.6,2.1,3.4c0,0-1,2.2,0.7,3.6c0,0-0.3,4.4,1.3,5.3
				c0,0,3.9-0.2,5.3-1.4c0,0,0.8-2.9-1.4-5.7c0,0,0.3-2.8-1.8-4.2c0,0,0.7-3.7-2.1-5.1c0,0-0.5-3-2.2-4.5
				C813.6,277.5,810.2,282.2,808.7,281.9L808.7,281.9z"/>
			<path class="st13" d="M813.1,277.5c0,0-11.6-4.3-18,1.8c0,0,9.9,1.4,11.1,3.3C807.5,284.6,813.6,279.4,813.1,277.5L813.1,277.5z"
				/>
			<path class="st13" d="M809.5,284.7c0,0-0.9-0.8-2.1-1.6c-1.1-0.8-10.9-3.4-12.3,6c0,0-3.6-9.3,1.6-10.6
				C802,277.2,806.1,280.2,809.5,284.7"/>
			<path class="st13" d="M801.9,265.5c0,0,3.6,7.7,4.9,8.1c1.3,0.4,2.3-0.9,2.3-0.9S804.3,265.7,801.9,265.5z"/>
			<path class="st13" d="M799.3,253.6c0,0-3-10-6.6-7.4c-3.6,2.6-2.6,9.8-2.6,9.8s-7.2-7.3-3-13.2
				C791.2,237,799.3,243.4,799.3,253.6L799.3,253.6z"/>
			<path class="st14" d="M807.4,274.1c0,0,0,1.9,1.3,2.4c1.3,0.6,3.8,1.5,3.8,0.4c0-1.1-1.9-5.5-2.6-4.9
				C809.1,272.6,807.7,272.6,807.4,274.1L807.4,274.1z"/>
			<path class="st13" d="M805.1,262.5c0,0-0.4-8.7,5.3-11.9c0,0,1.1,0.2,1.7-1.5c0,0-4.5,10.9-3.2,16.4l-0.2,0.8"/>
			<path class="st13" d="M806.2,251.9c0,0,10.2-21.1,22.6-13.8c0,0-13,2.6-17.7,11.9l-4.7,7L806.2,251.9L806.2,251.9z"/>
			<path class="st13" d="M800.8,259.6c0,0-3-14.1-4.9-16c-1.9-1.9-5.1-4-8.9-0.8c0,0,6.6-5.8,13.6-0.9c7,4.9,5.5,12.6,5.5,12.6
				l-0.8,9.8l-4.7-4.3"/>
			<path class="st13" d="M811.7,276.4c0,0-12.4-23.6-20.5-6.8c0,0-1.5,4.3,0.2,6c0,0-4.5-3.4-2.4-11.7c2.1-8.3,15.8-4.5,19.8,2.3
				c4,6.8,5.1,10.2,4.5,10.6C812.6,277.1,811.7,276.4,811.7,276.4L811.7,276.4z"/>
			<path class="st13" d="M846.8,283.2c0,0,9.1-18.7,14.3-10.2c0,0,1.5,4.1-0.8,5.8c0,0-3.6-4.3-6.8,0.9c-3.2,5.3-1.9,4.9-1.9,4.9
				S848.3,285.6,846.8,283.2L846.8,283.2z"/>
			<path class="st13" d="M860.3,278.8c0,0,4.9,2.6,3.2,7.9c0,0,6.6-12.6-2.5-13.8C861.1,273,862.8,277,860.3,278.8L860.3,278.8z"/>
			<path class="st13" d="M860.9,266c0,0,11.9,3.4,12.3,8.5c0,0,2.1-9.8-4.7-12.8C868.4,261.7,860.3,263,860.9,266L860.9,266z"/>
			<path class="st13" d="M866.2,250.4c5.1-10,11.5,3.2,11.5,3.2s2.3-10.4-4.1-12.3c-6.4-1.9-10.6,22-10.6,22l-7.5,1.7
				c0,0,2.1-20.9,13.4-22.8l1.3,0.2"/>
			<path class="st13" d="M857.1,256.4c0,0-7.2-14.7-12.1-16.2c-4.9-1.5,2.6-3.8,5.7-0.9c3,2.8,8.7,6.4,8.1,13.9L857.1,256.4
				L857.1,256.4z"/>
			<path class="st13" d="M849.8,276.6c0,0,2.1-10,7.7-13c5.7-3,10.9-1.9,10.9-1.9s-6.8,1.5-7.9,4.9c-1.1,3.4-3,3.6-3,3.6
				L849.8,276.6L849.8,276.6z"/>
			<path class="st14" d="M846.8,283.2c0,0-3.2,6-2.5,7c0,0-3.4,4.9-2.1,7.4c0,0,3.4,2.6,4.9,1.5c0,0,4-5.5,2.8-8.5
				c0,0,2.6-3.6,1.7-5.8C851.7,284.7,847.7,284.9,846.8,283.2L846.8,283.2z"/>
			<g>
				<path d="M830.2,272.4c0.2,0.1,2.1,1,3.4,0.6l0.9-0.8l-0.7-0.4c-0.5,0.9-2.5,0.2-3.2-0.2L830.2,272.4z"/>
				<path d="M829.9,278.3l-0.2,0.8c0.2,0,4,0.8,5.8-0.8l-0.5-0.6C833.5,279,829.9,278.3,829.9,278.3L829.9,278.3z"/>
				<path d="M828.9,284.9l-0.5,0.7c0,0,4.5,3.2,7.3-0.3l-0.6-0.5C832.8,287.7,829.1,285,828.9,284.9z"/>
				<path d="M811.6,285.9l0.2,0.4c0.2-0.1,3.9-1.6,4.2-4.3l-0.5,0C815.3,284.4,811.7,285.9,811.6,285.9z"/>
				<path d="M813.8,289.3l0,0.5c0.1,0,3.6-0.3,4.2-2.7l-0.4-0.1C817.1,289.1,813.8,289.3,813.8,289.3z"/>
				<path d="M814.5,292.9l0,0.5c0.2,0,4.1,0.2,5.4-1.9l-0.4-0.2C818.3,293.1,814.5,292.9,814.5,292.9z"/>
				<path d="M844,290.4c0.1,0.1,1.7,1.7,3.7,1.7c1,0,1.8-0.5,2.5-1.3l-0.6-0.5c-0.6,0.7-1.2,1-1.9,1c-1.6,0.1-3.1-1.4-3.1-1.4
					L844,290.4z"/>
			</g>
		</g>
		<g>
			<path class="st15" d="M961.1,304.2c-0.2,0.1-0.4,0.2-0.6,0.4L961.1,304.2z"/>
			<path class="st15" d="M974.9,300.8c-0.1-0.3-0.2-0.2-0.4-0.4c-0.3-0.2-0.4-0.9-0.6-1.1c-0.1-0.2-0.3,0-0.4,0
				c-0.3-0.7-0.7-1.5-1-2.2c0.1-0.1,0.1-0.2,0.1-0.3c0,0-0.2-0.6-0.2-0.6c-0.1-0.2-0.3-0.1-0.3-0.3c-0.1-0.2,0-0.7-0.1-1
				c0-0.2-0.1-0.4-0.1-0.7c0-0.3,0.2-0.6,0.1-0.9c0-0.2-0.2-0.5-0.2-0.6c-0.2-0.5-0.4-1-0.4-1.7c0-0.6,0.1-1,0.1-1.5
				c0.1-0.6-0.3-0.9-0.3-1.5c0-0.4,0.2-0.9,0.2-1.3c0.1-0.5,0.1-1.3,0-1.9c0-0.5-0.2-0.9-0.1-1.4c0-0.1,0.1-0.3,0.1-0.5
				c0-0.1,0-0.3,0-0.4v-0.9c0-0.3,0-0.6,0-0.9c0-0.2-0.2-0.5-0.2-0.6c0-0.3,0.2-0.5,0.2-0.9c0-0.3-0.1-0.4-0.1-0.6
				c-0.1-0.5,0-1-0.1-1.5c0-0.3-0.1-0.3-0.1-0.6c0-0.3,0.1-0.5,0.1-0.7c0-0.2,0.1-0.6,0-0.8c0-0.3-0.2-0.5-0.1-0.9l-0.1,3.8
				c-0.1-3.3-0.2-6.4-0.2-6.4l-5-2.4c0,0-0.4,9.2-0.3,10.5c0.1,1.3,0.5,10.1,0.3,11.1c-0.2,1.1-0.7,6.4-0.7,6.4s-2.5,1.7-3.4,3.6
				c-1,1.9-0.7,2.6-1.1,2.6l2.4-0.4l-1.8,1.2c0.4-0.1,0.8-0.1,1.1,0.2c0,0,0.3,0.3,0.3,0.3c0.1,0,0.2-0.2,0.3-0.3
				c0.4-0.1,0.7,0.6,1,0.5c0.2,0,0.4-0.2,0.6-0.4c0.1-0.2,0.2-0.5,0.3-0.6c0.1-0.1,0.4,0,0.5,0c0.4,0,0.7,0,1.1,0
				c0.5,0,0.8-0.7,1.3-1c0.4-0.3,0.7-0.5,1.1-0.4c0.5,0,0.9,0.5,1.4,0.5c0.4,0,0.6,0.1,0.9-0.3c0.2-0.3,0.3-0.7,0.5-0.9l1.2-0.2
				c0.2,0.1,0.5,0.2,0.7,0.2c0.3,0,0.6-0.1,0.9,0c0.1,0,0.3,0.3,0.4,0.2c0.1,0,0.2-0.4,0.2-0.5C975,301.2,975,300.9,974.9,300.8
				L974.9,300.8z"/>
			<path class="st15" d="M964.8,304c0.3,0,0.6-0.1,0.8,0.2c0,0.1,0.1,0.2,0.1,0.2c0.1,0.1,0.2,0.1,0.3,0c0.2,0.1,0.2,0.2,0.4,0.2
				c0.2,0,0.4,0,0.5,0c0.2,0,0.3,0.1,0.5,0.2c0.4,0.1,0.6,0,0.9-0.2c0.4-0.3,0.5-0.1,0.8,0.3c0.3,0.2,0.2,0.2,0.4,0.1
				c0-0.1,0.1-0.2,0.1-0.2c0.1,0,0.2-0.1,0.4-0.1c0.2-0.1,0.4-0.1,0.6-0.1c0.2-0.1,0.3-0.3,0.5-0.2c0.2,0,0.4,0.2,0.5,0.2
				c0.2,0.1,0.2,0.1,0.4,0.2c0.2-0.5,0.8-0.6,1.1-0.9c0.4-0.2,0.7,0.1,1.1,0.1c0.2,0,0.3-0.1,0.4-0.2c0.2-0.1,0.4,0,0.5,0
				c0.2-0.1,0.2-0.2,0.4-0.2c0.3,0,0.7,0.5,1.1,0.6c0.2,0.1,1.1,0.3,0.9-0.4c-0.1-0.6-0.7-0.2-0.8-0.6c-0.1-0.2,0.1-0.6,0-0.9
				c-0.1-0.3-0.3-0.5-0.5-0.6c-0.2-0.1-0.3,0.2-0.5,0c-0.1-0.1-0.2-0.6-0.3-0.8c-0.2,0.1-0.3,0.2-0.5,0.2c-0.3-0.1-0.2-0.1-0.4-0.4
				c-0.4-0.5-0.7,0.3-1,0.2c-0.3-0.1-0.6-0.8-0.8-1.1c-0.1-0.2-0.5-0.7-0.6-0.6c-0.3,0.2,0,0.8-0.2,1c-0.1,0.2-0.5,0-0.7,0
				c-0.2,0-0.3,0.1-0.4,0.4c-0.3,0.5-0.5,1-1,0.9c-0.2,0-0.4-0.3-0.7-0.2c-0.3,0.1-0.4,0.4-0.7,0.4c-0.2,0-0.4,0-0.6-0.1
				c-0.2-0.1-0.4-0.5-0.6-0.6c-0.1-0.1-0.2-0.1-0.2,0c0,0-0.3-0.2-0.3-0.2c-0.3-0.1-0.3-0.1-0.4,0.3c-0.1,0.3-0.1,0.5-0.2,0.8
				c-0.1,0.2-0.3,0.5-0.4,0.6c-0.2,0.2-0.3,0.2-0.6,0.3c-0.2,0.1-0.5,0.4-0.6,0c-0.2-0.7,0.5-1.7-0.3-1.5c-0.2,0-0.3,0.1-0.4,0.4
				c-0.1,0.3,0,0.6-0.1,0.9c-0.1,0.5-1,1.2-0.8,1.7c0.1,0.3,0.5-0.2,0.6-0.1c0.2,0.1,0.1,0.4,0.3,0.6c0.3,0.4,1.1-0.6,1.1-0.1"/>
			<path class="st15" d="M961.5,300.4c0-0.1,0-0.1,0-0.2c-0.2,0-0.5-0.3-0.6-0.3c-0.2,0-0.5,0.4-0.7,0.7c-0.4,0.6-0.3,1.5-0.9,1.5
				c-0.2,0-0.5-0.1-0.7,0c-0.2,0.2-0.1,0.7-0.1,1c0,0.3,0.2,0,0,0.4c-0.1,0.1-0.2,0.2-0.3,0.3c-0.1,0.6,0.3,0.4,0.5,0.4
				c0.5,0,1.1,0,1.6,0c0.3,0,0.5-0.1,0.8-0.2c0.2-0.1,0.6-0.1,0.8-0.2c0.1-0.1,0.3-0.5,0.3-0.6c0-0.2,0-0.5,0-0.7
				c0.1-0.3,0.4-0.2,0.4-0.6c0.1-1-1-0.3-0.8-1.3"/>
		</g>
		<g>
			<path class="st16" d="M974.2,271.3c0,1.4-0.9,2.4-2.1,2.4c-1.1,0-2.1-1.1-2.1-2.4c0-1.4,0.9-2.5,2.1-2.5
				C973.3,268.8,974.2,269.9,974.2,271.3z"/>
			<path class="st16" d="M967.4,268.3c0,1.4-0.9,2.4-2.1,2.4c-1.1,0-2.1-1.1-2.1-2.4s0.9-2.5,2.1-2.5
				C966.5,265.8,967.4,266.9,967.4,268.3z"/>
			<path class="st16" d="M971,269.2c0,1.4-0.9,2.4-2.1,2.4s-2.1-1.1-2.1-2.4s0.9-2.5,2.1-2.5S971,267.8,971,269.2z"/>
			<path class="st16" d="M967.5,271.4c0,1.4-0.9,2.5-2.1,2.5s-2.1-1.1-2.1-2.5c0-1.4,0.9-2.4,2.1-2.4S967.5,270.1,967.5,271.4z"/>
			<path class="st16" d="M970.8,273.3c0,1.4-0.9,2.5-2.1,2.5c-1.1,0-2.1-1.1-2.1-2.5s0.9-2.4,2.1-2.4
				C969.8,270.9,970.8,272,970.8,273.3z"/>
			<path class="st13" d="M971.8,246.6c0,0,20.9-29.2,43.3,1.1c0,0,0.2,3-1.9,6.2l-0.6-2.4l-1.3,0.4l-0.4-1.5l-2.5-0.2l0.8-3.2
				l-2.6,2.1l0.4-2.3l-3,3l0.4-6.4l-3.2,5.5l0.4-3.8l-1.1,1.7l-0.7-2.2l-1,2.2l-1.5-1.1v1.5l-2.6-2.3l-0.9,3l-1.3-3.2l-0.4,2.3
				l-1.3-2.6l-0.2,2.8l-4.3-1.9l0.9,2.6l-2.1-1.5l0.4,1.5l-2.8-0.6l0.2,1.7l-3-0.6l0.6,1.5l-4.1-0.6l1.5,1.7l-0.4,0.7
				c0,0,22.7-7.5,24.2,20.8l-4.1,2.1l1.1-2.3l-1.1-0.8l-3.4-2.6l0.9-3.6l-1.1,0.4l-0.2-2.1l-0.6,0.4l-1.3-2.1l-0.4,0.8l-0.9-2.5
				l-0.9,1.7l-0.6-4.1l-1.5,2.6L987,259l-0.6,0.9l-1.9-2.3l-0.6,1.5l-0.8-1.1l-0.6,1.3l-2.1-1.9v1.5l-1.3-1.1l-0.6,0.8l-3.2-1.7
				l-0.2,1.5l-1.7-1.5l-0.6,1.5c0,0,20.5,11.7,14.1,30.7l-1.1,2.4l-0.4-6.4l-1.9,3.4l1.3-7.4l-1.3,1.3l-0.2-2.8l-1.7,2.8l-0.6-3.2
				l-0.7,0.9l-1.1-4.9l-0.9,2.1L977,272l-1.1,2.3l-0.8-4.7l-0.8,2.8l-2.3-4.1l-0.4,1.7l-1.3-3.4l-0.8,1.1c0,0-3.8-0.2-4.9-1.1
				c-1.1-0.9-4.3,5.7-4.3,5.7l0.4-4l-1.3,2.6v-2.6l-2.5,7.9l-0.6-5.7l-1.3,4.9l-0.6-1.5l-0.4,2.1l-0.8-0.8l-0.7,2.2l-1.2-0.9v3
				l-1.1-1.5l-0.9,4.5l-0.6-1.9v2.1l-0.9-1.1l-0.9,4.5l-1.3-1.9l-0.2,3.2l0.6,2.5l-1.5-0.8l0.6,4c0,0-5.8-10.9,1.1-21.5
				c7-10.5,16.4-13.4,16.4-13.4l-0.9-0.9l-0.2-0.9l-5.7,2.8l0.2-1.7l-1.5,1.3l-0.4-1.9l-0.9,1.7l-0.2-0.8l-1.3,2.1l-0.8-3l-0.9,3.6
				l-0.9-2.5l-1.9,5.3v-4l-1.5,4.1l-0.6-4.5l-1.1,5.3v-4.7l-1.7,4.7l-1.1-4.5l-0.8,4.3l-1.1-3.4l-1.1,5.1l-1.7-4.5l-0.9,6.8
				l-1.1-2.6l-0.2,4.9l-1.3-3l1.3,6.4l-1.7-2.4l0.6,4l-2.4-4.3l0.2,5.1l-1.3-1.7l-0.6,1.9c0,0-0.6-19.6,12.8-23.4
				c13.4-3.8,22.1,1.1,22.1,1.1l-5.1-4.1l0.6-1.3h-1.9l0.8-1.5l-4,0.2l1.1-1.5l-3,0.4v-0.9l-1.9,1.5l0.8-1.7l-2.6,1.7l-0.2-2.5
				l-1.3,2.1l-0.7-2.3l-6,6l1.7-6.2l-1.1,1.3l-0.2-1.3l-1.7,2.6l-0.4-1.9l-0.8,2.3l-0.6-2.6l-1.3,2.6l-1.3-2.4l-0.6,3.2l-0.9-1.7
				l-1.1,2.5l-1.5-1.5l-0.2,1.5l-3-1.3l0.8,2.3l-2.3-1.9l-0.6,3l-1.3-1.5l-0.9,3.8L922,249l-0.9,2.8c0,0,11.8-30.3,41.6-10.5
				c0,0,3.2,3.2,4,5.4c0.8,2.3,0.2,0.4,0.2,0.4l-0.6-20.9l1.1,9l0.8-3.2l-0.2,4.7l3-6.6c0,0-3.6,10.9-2.3,14.9
				c0,0,1.3-12.6,5.8-14.1l-4.1,9l1.3-0.2l-0.9,1.9h1.1l-1.4,3l-0.7,1.5l0.8,1.5L971.8,246.6L971.8,246.6z"/>
		</g>
	</g>
	<path d="M968.7,258.9l0.6,0.5c0.1-0.1,1.9-2.1,5.1,0.6l0.5-0.6C971.1,256.2,968.7,258.8,968.7,258.9z"/>
	<path d="M967.8,248.6l-0.1,0.7c0,0,1.1-0.5,1.5-0.6c-0.2,0.4-1,1.7-1,1.7s1.6-0.5,2.2-0.7c-0.9,1.2-2.7,3.5-2.7,3.5l0.6,0.5
		l4.3-5.6c0,0-2,0.7-2.7,0.9c0.3-0.5,1.1-2,1.1-2s-1.7,0.8-2.3,1c0.2-0.9,0.5-2.9,0.5-2.9l-0.8-0.1L967.8,248.6z"/>
	<path d="M963.8,248.8c0,0,0.5,1.2,0.9,2c-0.2-0.1-1.5-0.6-1.5-0.6l4.3,7.7c0,0,0.5-0.7,0.6-0.7c-0.4,1.1-0.9,2.3-0.9,2.3l0.8,0.3
		l1.9-4.8l-0.7-0.4c0,0-1,1.3-1.5,1.9c-0.4-0.7-1.9-3.4-2.6-4.6c0.1,0,1.2,0.5,1.2,0.5s-0.8-1.8-1.2-2.7c0.5,0.3,1.6,1,1.6,1v-2.9
		h-0.8v1.4c-0.6-0.4-2.7-1.7-2.7-1.7L963.8,248.8L963.8,248.8z"/>
	<path d="M961,258.5l0.3,0.7c1.2-0.5,2.1-0.6,2.9-0.2c0.9,0.4,1.1,1.3,1.1,1.3l0.8-0.2c0-0.1-0.4-1.2-1.5-1.8
		C963.6,257.8,962.4,257.9,961,258.5z"/>
	<path d="M964.4,266.6l-0.7-4.2l0.8-0.1l0.7,4.2L964.4,266.6z"/>
	<path d="M970.2,266l-1.1-3.2l0.8-0.3l1.1,3.2L970.2,266z"/>
	<path d="M972.3,268.3l-0.8-3.2l0.8-0.2l0.8,3.2L972.3,268.3z"/>
	<g>
		<path class="st13" d="M811.4,365c0,0-3.5-1.6-5.1-0.4c-1.6,1.2-1.4,2.9-2.8,2.8c0,0,5.4,1.2,6.5-0.2c1.2-1.4,1.4-1.8,1.4-1.8"/>
		<path class="st13" d="M812.1,366.5c0,0-2.3,3.1-1.5,4.9c0.8,1.8,2.5,2,2.1,3.3c0,0,2.3-5,1.2-6.4c-1.1-1.4-1.5-1.7-1.5-1.7"/>
		<path class="st13" d="M808.1,357.9c0,0-3.7,1.2-4.1,3.1c-0.4,1.9,0.9,3.1-0.2,3.9c0,0,4.8-2.7,4.7-4.5c0-1.8-0.2-2.3-0.2-2.3"/>
		<path class="st13" d="M810.3,359.2c0,0,1.8-3.5,0.7-5.1c-1.1-1.7-2.8-1.5-2.7-2.9c0,0-1.4,5.3-0.1,6.5c1.3,1.2,1.8,1.5,1.8,1.5"/>
		<path class="st13" d="M806.7,357.9c0,0,0.1-3.9-1.6-4.9c-1.7-1-3.2-0.1-3.7-1.5c0,0,1,5.4,2.8,5.9c1.7,0.5,2.2,0.6,2.2,0.6"/>
		<path class="st13" d="M813,364.4c0,0,4.1-1.4,4.4,3c0.3,4.4-0.2,2.9-0.2,2.9s-2.1-4.7-4.5-5.5L813,364.4z"/>
	</g>
	<path d="M812,366.6c0,0.1,0.4,3.4,0.4,3.4l0.6-0.1l-0.4-3.3c0,0,1.4-7.3,1.4-7.3l-0.6-0.1L812,366.6z"/>
	<path d="M808.3,365.5l-0.2,0.5c1.9,0.7,4.7-1.5,4.8-1.5l-0.4-0.4C812.5,364.1,809.9,366.1,808.3,365.5L808.3,365.5z"/>
	<path d="M813.4,361.2l-9.1-4.6l0.4-0.7l9.1,4.6L813.4,361.2z"/>
	<path d="M806.8,360.2l-0.6-0.6l1.8-1.8l0.6,0.6L806.8,360.2z"/>
	<path d="M810,359.3l-1.9-4.2l0.7-0.3l1.9,4.2L810,359.3z"/>
	<path d="M812.7,364.4l0.1,0.8c2.5-0.2,3.1,1.4,3.1,1.5l0.8-0.2C816.5,366.1,815.5,364.2,812.7,364.4L812.7,364.4z"/>
	<g>
		<path class="st17" d="M854.4,366.3c3-1.7,3.6-7.7,3.6-7.7c-0.7,2.2-6.3,4.4-6.3,4.4c4.1-2.6,9.1-14.1,9.1-14.1
			c-1.3,4.1-12.1,7.5-19.1,11.4c-6.9,3.9-3.3,15.1-3.3,15.1c-1.9-1.3-5.7-7.3-6.4-12.5c-0.7-5.2-2.8-7.3-7.5-7.9
			c-4.7-0.6-7.5,4.7-7.5,4.7l-7,3.6l7.2,0.2c0,0,5.1,1.7,5.1,5.7c0,4-4.5,20,2.9,29c5.2,6.2,24.2,9.8,24.2,9.8"/>
		<path class="st17" d="M840.5,378.6c0,0,1.5-7.2,6.2-6.9c4.7,0.2,6.1-5.3,8.9-6.2c2.8-0.8,17.2-4.7,18.8-11.7
			c0,0-1.3,11.4-14.6,17.1c0,0,10.7-3.5,11.9-5.8c0,0-4.7,10.2-16.3,11.8c0,0,10.8-0.8,12.4-3.8c0,0-4.9,6.4-12.9,7.3
			c0,0,7.4,3,9.3,0.5c0,0-4,4.7-9,5.1l1.3,0.4c0,0-4.7,5.6-10,1.8c-5.2-3.8-5.3,1-5.3,1"/>
		<path class="st17" d="M851.3,389.5c0,0,6.1,10.2,6.7,15.7c0,0,11.7,12.9,16,13.6c0,0-2.1,0.8-5.8-2.3c0,0,3.2,3.3,3.8,3.4
			c0.6,0.1-2.6-0.2-3-1.1c0,0,1.3,1.9,2.2,2.2c0.9,0.2-0.8-0.2-0.8-0.2s-1.6-0.2-2.3-0.9c-0.7-0.6-0.2,1.6-0.2,1.6s-1.8-0.5-2.4-1.1
			c-0.6-0.6,0.2,1.3,0.2,1.3l-1.6-0.4l-1.1,0.7c0,0-0.1,0.7-0.9,0.1c-0.7-0.6-2.1,0-2.1,0s-1,0.9-1.5,0.2c-0.5-0.6-2.3,2.3-2.3,2.3
			l-7.6-18.5"/>
	</g>
	<path d="M858.5,422.9l-9.7-18.4l1-0.5l9.7,18.4L858.5,422.9z"/>
	<path d="M866.9,421.7l-16.5-18.5l0.9-0.8l16.5,18.5L866.9,421.7z"/>
	<path d="M870.7,420.1l-18.9-17.6l0.8-0.8l18.9,17.6L870.7,420.1z"/>
	<path d="M823.4,360.8c0,0-1.2-2.2-2.3-1.4c-1.1,0.8-1.7,1-1.9,0.9c0,0,1.1,0.1,1.7-0.5C821.6,359.3,822.6,359.6,823.4,360.8
		L823.4,360.8z"/>
	<path d="M816.8,359.8c0,0,0.7,1.4,0.7,1.4c-0.1,0-0.8,2.3-0.8,2.3l0.6,0.2l0.8-2.5c0-0.2-0.7-1.6-0.7-1.6L816.8,359.8z"/>
	<path d="M823.2,360.5c0,0-0.9,1.1-2.2,0.8c-1.3-0.3-1.3-0.3-1.3-0.3s1.1,0.1,1.8,0.1C822.2,361.1,823.1,360.7,823.2,360.5z"/>
	<path d="M822.9,360.7c0,0-1.1-1.2-1.9-0.9c0,0,1.3-0.4,2.1,0.7L822.9,360.7z"/>
	<path d="M822.7,360.5c0,0-1.3,0.9-2.7-0.1l-0.1-0.1l0.2-0.1C820.1,360.3,821.8,361,822.7,360.5z"/>
	<circle cx="821.6" cy="360.3" r="0.4"/>
	<path d="M822.6,394.2c0,0-1,1.8-0.5,2.9c0.5,1.1,2.9,1.7,3.2,3.1c0.3,1.5,1.1,1.5,2.2,1.3c1.1-0.2,1.3-0.3,1.3-0.3
		s-4.6-2.5-5.8-6.5L822.6,394.2z"/>
	<g>
		<path class="st18" d="M972.1,356.9c0,0,8.4-11.1,15.9-8.2c7.5,2.9,12.3,4.3,12.3,4.3s0.1,7.5-3.8,7.5c-4,0-7.8-7.5-11.4-5.2
			c-3.6,2.2-6.6,5.3-6.8,6.3C978,362.6,968.7,362.8,972.1,356.9L972.1,356.9z"/>
		<path class="st14" d="M940.1,410.4c0,0-2.3,2.4-1.3,3c1.1,0.6,3.1-0.1,3.1-0.9C942,411.6,940.6,410.1,940.1,410.4L940.1,410.4z"/>
		<path class="st14" d="M938.3,412.7c0,0-4.3-2.5-7.7,3.4c-3.4,5.8-6.2,15.3-8.2,16.6c-2,1.3,19.2-9.3,19.5-13.8
			c0,0,1.4-5.7-0.8-5.6C938.9,413.4,938.7,413.6,938.3,412.7L938.3,412.7z"/>
		<path class="st18" d="M938.9,413.4c0,0-4.4,1-5.4,7.3c-0.9,6.3-7.1,9.6-7.5,9.8"/>
		<path class="st18" d="M1000.3,353c0,0-6.7,2.3-5.6,7"/>
	</g>
	<path class="st19" d="M948.5,366.6c0,0,0.2-16,13.3-15.3c2.5,0.2,1.3,3.1,1.3,3.1s2.8-2,4.1,1.2c0,0,4.1-1.9,4.6,2.2
		c0,0,4.5-0.6,3.9,3c0,0,3.1-0.7,2.9,1.9c0,0,3.5-1.4,3.2,2.2c0,0,3.9-2.6,3.3,2.1c0,0,4-2.8,5.4,1.9c1.4,4.7-4,14.6-9.3,17.1"/>
	<path d="M984.8,367.6c0,0.1,1.8,12.5-5.3,17l0.2,0.4c7.3-4.7,5.5-17.4,5.5-17.5L984.8,367.6L984.8,367.6z"/>
	<path d="M976.4,381.2l0.3,0.3c4.4-4.3,5.4-16,5.4-16.5l-0.5,0C981.7,365.1,980.7,377,976.4,381.2L976.4,381.2z"/>
	<path d="M972.2,378.4l0.5,0c0.6-7.2,6.2-15.4,6.3-15.5l-0.4-0.3C978.5,362.7,972.8,371.1,972.2,378.4L972.2,378.4z"/>
	<path d="M969,376.3l0.5,0c0.8-8.7,6.5-15.2,6.6-15.3l-0.3-0.3C975.6,360.8,969.8,367.5,969,376.3L969,376.3z"/>
	<path d="M964.4,373.4l0.5,0c0.5-10.2,7.2-15.3,7.2-15.3l-0.3-0.4C971.8,357.8,964.9,362.9,964.4,373.4L964.4,373.4z"/>
	<path d="M960.2,370.8l0.5,0c-0.3-9.3,6.8-14.9,6.9-15l-0.3-0.4C967.2,355.6,959.9,361.3,960.2,370.8L960.2,370.8z"/>
	<path d="M952.6,367.4l0.5,0.1c1.2-10.1,10.2-12.7,10.3-12.8l-0.1-0.4C963.2,354.3,953.9,357,952.6,367.4L952.6,367.4z"/>
	<g>
		<path class="st20" d="M940.8,386c0,0-2.2-14.8,6.6-19.5c0,0,1.6-0.4,2.6,1.7c0,0,4.7-2,4.8,2c0,0,2.3-1.9,2.9,0.7c0,0,5-1,4.1,2.7
			c0,0,4.2-1.2,3.8,2.4c0,0,4.2-1.5,3.5,1.6c0,0,4.4-1,3.4,2.6c0,0,5.5-0.6,3.8,3.3c0,0,4.1-1,3.1,2.1c0,0,5.4,0.9,2.9,4.3
			c-2.4,3.4-8.6,8.5-14.7,10.7"/>
		<path class="st20" d="M936.1,400.9c0,0-3.6-12.4,3.3-15.5c0,0,1.3-0.4,1.5,0.9c0,0,1.5-2,2.7-0.2c0,0,3.5-1.6,4.3,0.9
			c0,0,2.3-2,3.5,0.9c0,0,2.2-0.9,2.2,1.4c0,0,3-1.3,3,1.5c0,0,2.9-1.2,2.3,2c0,0,4.4,0.7,3.2,2.8c0,0,4,1,2.4,2.7
			c0,0,4.3-0.5,2,2.4c0,0,3.3-1,1.4,2.6c-1.9,3.6-7.7,7.6-11.8,8"/>
		<path class="st20" d="M940.4,410.7c0,0-7.7-7.5-4.1-9.7c0,0,1.6,0.5,2.2,2.1c0,0,1.9-2.7,2.9,0.1c0,0,2.8-0.9,2.8,0.9l2.2,1.6
			c0,0,2.6-0.2,2.1,1.4c0,0,2.8-0.4,2.7,1.2c0,0,2.5,0.1,2.2,1.7c0,0,4.2,0.7,2.3,2.8c0,0-7.3,1.5-12.5-0.6
			C943.3,412.3,940.6,411.4,940.4,410.7L940.4,410.7z"/>
	</g>
	<path d="M966.8,398.4l0.2,0.4c4.6-1.8,12.5-12.6,12.8-13l-0.4-0.3C979.3,385.6,971.2,396.7,966.8,398.4L966.8,398.4z"/>
	<path d="M964.2,396.4l0.2,0.4c4-2.2,11.9-12.7,12.2-13.1l-0.4-0.3C976.1,383.5,968.1,394.2,964.2,396.4L964.2,396.4z"/>
	<path d="M961.9,395.5l0.3,0.4c4.2-3.5,10.3-15,10.6-15.5l-0.4-0.2C972.3,380.3,966,392.1,961.9,395.5L961.9,395.5z"/>
	<path d="M959.9,392.8l0.5,0.1c0.8-5.8,9-14.9,9-15l-0.3-0.3C968.7,377.9,960.7,386.9,959.9,392.8L959.9,392.8z"/>
	<path d="M943.5,385.8l0.5,0c-0.7-8.2,6.2-17.2,6.3-17.3l-0.4-0.3C949.8,368.2,942.8,377.4,943.5,385.8z"/>
	<path d="M947.8,386.5l0.5-0.1c-1.1-6.6,6.6-15.9,6.7-16l-0.4-0.3C954.3,370.5,946.7,379.7,947.8,386.5L947.8,386.5z"/>
	<path d="M954.5,388.9l0.5,0c-0.2-7.5,7-15,7.1-15.1l-0.3-0.3C961.6,373.6,954.3,381.2,954.5,388.9L954.5,388.9z"/>
	<path d="M938.7,402.5l0.4-0.2c-2.6-6.9,1.9-15.8,2-15.9l-0.4-0.2C940.6,386.3,936,395.4,938.7,402.5L938.7,402.5z"/>
	<path d="M941.7,403l0.4-0.1c-2.3-7.1,1.6-16.5,1.6-16.6l-0.4-0.2C943.3,386.1,939.3,395.7,941.7,403L941.7,403z"/>
	<path d="M954.2,410l0.2,0.4c7.4-2.7,12.3-9.5,12.4-9.5l-0.4-0.3C966.3,400.7,961.5,407.4,954.2,410L954.2,410z"/>
	<path d="M952.6,408.4l0.2,0.4c5.9-2.7,11.5-10.1,11.5-10.2l-0.4-0.3C963.9,398.4,958.5,405.8,952.6,408.4L952.6,408.4z"/>
	<path d="M951.2,407.9l0.3,0.4c4.6-3.4,10.6-12,10.7-12.1l-0.4-0.3C961.7,396,955.8,404.5,951.2,407.9L951.2,407.9z"/>
	<path d="M943.8,403.5l0.5-0.1c-1-7.4,3.8-16.2,3.8-16.3l-0.4-0.2C947.6,387,942.7,396,943.8,403.5L943.8,403.5z"/>
	<path d="M947,405.5l0.3,0.3c4.8-4.3,6.4-16,6.5-16.5l-0.5-0.1C953.3,389.5,951.7,401.3,947,405.5L947,405.5z"/>
	<path d="M950.3,406.9l0.3,0.4c6.8-4.9,8.6-14.3,8.6-14.4l-0.4-0.1C958.7,392.9,956.9,402.1,950.3,406.9L950.3,406.9z"/>
	<path d="M951,386.7c0,0.4,0,0.9,0.1,1.3c0,0-5.1,16.6-5.1,16.6l0.4,0.1l5.1-16.7c-0.8-8.1,6.3-16.9,6.4-16.9l-0.4-0.3
		C957.5,370.9,951.1,378.9,951,386.7L951,386.7z"/>
	<path d="M956.4,390.7c-0.1,0.2-1.6,11.6-7.8,15.8l0.3,0.4c6.3-4.3,7.8-15.5,7.9-16c2.7-3.2,9-14.6,9.1-14.7l-0.4-0.2
		C965.4,376.1,959.2,387.4,956.4,390.7L956.4,390.7z"/>
	<path d="M938.3,403.2c0,0.2,1.1,5.9,2.2,7.9l0.4-0.2c-1.1-1.9-2.2-7.7-2.2-7.7L938.3,403.2z"/>
	<path d="M941.2,403.3c0,2.8,0.1,7.4-0.1,7.8l0.4,0.2c0.2-0.6,0.1-6.8,0.1-8L941.2,403.3L941.2,403.3z"/>
	<path d="M941.5,411.3l0.4,0.2c2-4.3,2.6-7.2,2.6-7.3l-0.5-0.1C944,404.2,943.4,407.1,941.5,411.3z"/>
	<path d="M941.9,411.5l0.2,0.4c3.7-2.1,4.5-5.8,4.5-6l-0.4-0.1C946.2,405.8,945.4,409.4,941.9,411.5L941.9,411.5z"/>
	<path d="M942.6,411.8l0,0.5c3.6-0.4,6-4.7,6.1-4.9l-0.4-0.2C948.3,407.2,945.9,411.4,942.6,411.8L942.6,411.8z"/>
	<path d="M942.9,412l0,0.5c5.8-0.4,8.3-3.8,8.4-3.9l-0.4-0.3C951,408.3,948.5,411.7,942.9,412L942.9,412z"/>
	<path d="M943.3,412.1l-0.1,0.4c0.3,0.1,7.6,1.6,10.2-2.2l-0.4-0.3C950.7,413.7,943.4,412.1,943.3,412.1L943.3,412.1z"/>
	<path class="st21" d="M778.8,143.9V349c0,67.1,121.2,106.9,121.2,106.9s121.2-39.8,121.2-106.9V143.9H778.8z"/>
</g>
</svg>
