<?xml version="1.0" encoding="utf-8"?>
<!-- Generator: Adobe Illustrator 23.0.1, SVG Export Plug-In . SVG Version: 6.00 Build 0)  -->
<svg version="1.1" id="mn" xmlns="http://www.w3.org/2000/svg" xmlns:xlink="http://www.w3.org/1999/xlink" x="0px" y="0px"
	 viewBox="0 0 4800 2400" style="enable-background:new 0 0 4800 2400;" xml:space="preserve">
<style type="text/css">
	.st0{fill:#C4272F;}
	.st1{fill:#015197;}
	.st2{fill:#F9CF02;}
	.st3{fill:#F9CF02;stroke:#C4272F;stroke-width:24;}
	.st4{fill:none;stroke:#C4272F;stroke-width:24;}
</style>
<g>
	<g transform="scale(5)">
		<path class="st0" d="M0,0h960v480H0V0z"/>
		<path class="st1" d="M320,0h320v480H320V0z"/>
		<circle class="st2" cx="160" cy="164" r="44"/>
		<circle class="st0" cx="160" cy="144" r="48"/>
		<circle class="st2" cx="160" cy="152" r="32"/>
		<path class="st2" d="M140,92c0,11,9,20,20,20s20-9,20-20c0-8-5-9-5-12s3-7-3-12c3,5-2,6-2,11s2,5,2,9c0,2.2-1.8,4-4,4s-4-1.8-4-4
			c0-4,4-8,4-14s-1-8-4-13s-8-9-4-13c-6,2-3,10-3,15s-4,8-4,14s3,7,3,11c0,2.2-1.8,4-4,4s-4-1.8-4-4c0-4,2-4,2-9s-5-6-2-11
			c-6,5-3,9-3,12S140,84,140,92z"/>
		<path class="st2" d="M72,216v192h40V216H72z M208,216v192h40V216H208z M120,248v16h80v-16H120z M120,360v16h80v-16H120z M120,216
			h80l-40,24L120,216z M120,384h80l-40,24L120,384z"/>
	</g>
	<g>
		<circle class="st3" cx="800" cy="1560" r="212"/>
		<path class="st4" d="M800,1348c58.5,0,106,47.5,106,106s-47.5,106-106,106s-106,47.5-106,106s47.5,106,106,106"/>
	</g>
</g>
<g>
	<circle class="st0" cx="800" cy="1454" r="40"/>
	<circle class="st0" cx="800" cy="1666" r="40"/>
</g>
</svg>
