<?xml version="1.0" encoding="utf-8"?>
<!-- Generator: Adobe Illustrator 23.0.1, SVG Export Plug-In . SVG Version: 6.00 Build 0)  -->
<svg version="1.1" id="mz" xmlns="http://www.w3.org/2000/svg" xmlns:xlink="http://www.w3.org/1999/xlink" x="0px" y="0px"
	 viewBox="0 0 900 600" style="enable-background:new 0 0 900 600;" xml:space="preserve">
<style type="text/css">
	.st0{fill:#FFFFFF;}
	.st1{fill:#007168;}
	.st2{fill:#FCE100;}
	.st3{fill:#D21034;}
	
		.st4{fill-rule:evenodd;clip-rule:evenodd;fill:#FFFFFF;stroke:#000000;stroke-width:1.25;stroke-linecap:round;stroke-linejoin:round;}
	.st5{fill:none;stroke:#000000;stroke-width:1.25;stroke-linecap:round;stroke-linejoin:round;}
	.st6{stroke:#000000;stroke-width:1.25;stroke-linecap:round;stroke-linejoin:round;}
	.st7{fill-rule:evenodd;clip-rule:evenodd;stroke:#000000;stroke-width:1.25;stroke-linecap:round;stroke-linejoin:round;}
</style>
<path d="M0,0h900v600H0V0z"/>
<path class="st0" d="M0,0h900v206.3H0V0z"/>
<path class="st1" d="M0,0h900v187.5H0V0z"/>
<path class="st0" d="M0,393.5h900V600H0V393.5z"/>
<path class="st2" d="M0,412.5h900V600H0V412.5z"/>
<path class="st3" d="M0,0v600l393.8-300L0,0z"/>
<path class="st2" d="M204.4,412.5l-73.2-53.6l-73.1,53.6l28.3-86.1L13,273.5l90.7,0.3l27.6-86.3l27.7,86.3l90.6-0.4l-73.5,53
	L204.4,412.5z"/>
<g transform="matrix(1.259719 0 0 1.259719 -29.41569 140.9042)">
	<path class="st4" d="M77.1,167.9h41.8c3.4,3.8,10.9,5.3,18,0c13.1-7.2,38.5,0,38.5,0l5-5.3l-12.2-40l-4.4-4.7c0,0-9.4-5.6-27.2-3.7
		c-17.8,1.9-24-0.6-24-0.6s-15.6,1.9-20,4.1c-0.5,0.4-5,5-5,5L77.1,167.9z"/>
	<path class="st5" d="M85.5,157.6c0,0,40-5,51.5,10.3c-6.5,4.5-12.3,4.8-18.4,0.3c1-1.6,14.4-15.6,48.4-10.9"/>
	<path class="st6" d="M128.3,117.7l-0.3,44 M163.9,118.3l7.5,35 M93.1,117.7l-4.2,18"/>
	<path class="st7" d="M49.9,172.7l9.8,11.5c1.2,0.7,2.2,0.6,3.2,0l14.6-17.5l6.1-7.6c0.9-1.1,1.3-2.4,1.2-3.5l11.7-10.4
		c1,0.1,1.5,0.2,2.5,0.2c-1.1-0.3-2-0.8-1.1-2.1l2.6-2l2,2.6c0,0-2.9,3.8-3.2,3.8s-3.2,0-3.2,0l-6.1,5.5l2.7,2.4l4,11l5-3.5
		l-3.2-11.4l7-7.6l-2.6-4.1l1.8-2.3c0,0,24.2,15.3,33.6,11.2c0.3,0.1,0.6-10.9,0.6-10.9s-25.1-2.6-25.7-7.6c-0.6-5,5.5-5.5,5.5-5.5
		l-2.6-3.8l0.6-2l4.4,5.5l9.9-8.5l58.3,66.5c3.2-1.3,3.9-2.1,4.1-5.2c-0.1-0.1-57.2-65.6-57.2-65.6l4.4-4.7c0.9-1,1.2-1.4,1.2-2.9
		l6.7-5.8c2,0.7,3.3,1.9,4.4,3.5l18.4-15.6c0.5,0.5,2,1,3,0.4l30.5-29.3L171.5,81l-1.2-0.9c0-1,1.2-1.2,0-2.9
		c-1.3-1.5-3.2,1.5-3.5,1.5c-0.3,0-4.8-1.6-5.8-3.6l-0.3,5.4l-8.5,7.9l-6.4-0.3l-9.3,9l-1.2,3.5l1.5,2.9c0,0-5,4.4-5,4.1
		c0-0.3-1-1.3-1-1.4l4.3-3.8l0.6-2.6l-1.4-2.2c-0.4,0.3-5.9,6-6.2,5.4c-0.5-0.5-15.7-17.8-15.7-17.8l0.9-3.2l-9.9-10.8
		c-3.6-1.2-9.3-1.5-10.5,6.4c-0.9,1.8-8.5,0.3-8.5,0.3l-4.1,0.9l-23,32.7L70,126.8l26.2-33.2l0.8-9.4l5.5,6.2
		c1.8,0.2,3.6,0.3,5.2-0.6l15.5,17.4l-2.6,2.5c0.9,1,1.5,1.6,2.4,2.6c0.9-0.6,1.7-1.3,2.6-1.9c0.3,0.4,0.8,1.1,1.1,1.5
		c-1.3,0.7-2.2,1.7-3.5,2.4c-2.1-1.4-4.1-3.1-3.9-5.7l-8.7,7.3l-0.3,1.5l-26,21.6l-2.3,0.3l-0.6,6.7l16.9-14v-2l1.7,1.5l13.1-10.5
		c0,0,0.9,1.2,0.6,1.2c-0.3,0-11.7,10.5-11.7,10.5l-0.3,1.2l-2,1.8l-1.2-0.9l-15.7,14h-2.3l-8.7,8.7c-2.3,0.2-4.2,0.4-6.1,1.7
		L49.9,172.7z"/>
</g>
</svg>
