<?xml version="1.0" encoding="utf-8"?>
<!-- Generator: Adobe Illustrator 23.0.1, SVG Export Plug-In . SVG Version: 6.00 Build 0)  -->
<svg version="1.1" id="ug" xmlns="http://www.w3.org/2000/svg" xmlns:xlink="http://www.w3.org/1999/xlink" x="0px" y="0px"
	 viewBox="0 0 900 600" style="enable-background:new 0 0 900 600;" xml:space="preserve">
<style type="text/css">
	.st0{fill:#FCDC04;}
	.st1{fill:#D90000;}
	.st2{fill:#FFFFFF;}
	.st3{fill:#D90000;stroke:#000000;}
	.st4{fill:#FCDC04;stroke:#000000;}
	.st5{stroke:#000000;}
	.st6{fill:#9CA69C;stroke:#9CA69C;}
	.st7{fill:#FFFFFF;stroke:#FFFFFF;}
	.st8{fill:#9CA69C;stroke:#000000;}
	.st9{fill:#FFFFFF;stroke:#000000;}
	.st10{stroke:#FFFFFF;}
</style>
<path d="M0,0h900v600H0V0z"/>
<path class="st0" d="M0,100h900v100H0V100z"/>
<path class="st1" d="M0,200h900v100H0V200z"/>
<path class="st0" d="M0,400h900v100H0V400z"/>
<path class="st1" d="M0,500h900v100H0V500z"/>
<circle class="st2" cx="450" cy="300" r="93.5"/>
<g>
	<path class="st3" d="M433.5,228.4l-6.1-11.2c2.3-2.3,6.3-4.1,12.6-4.1c0,0.4-0.6,12.2-0.6,12.2L433.5,228.4z"/>
	<path class="st4" d="M439.4,225.4l0.9-12.3c0,0,12.6-0.7,19.4,7.4c0.1-0.1-6.7,9.6-6.7,9.6L439.4,225.4z"/>
	<path class="st3" d="M453.1,230l6.2-9.6c4.1,4.4,5.9,7.4,6.5,12.1c0.1,0.1-9.8,2.4-9.8,2.3S453.2,230.1,453.1,230z"/>
	<path class="st5" d="M436.6,388.1c0,0,11.6-13.3,34.1-10.4c-3.4-5.5-14.4-4.9-14.4-4.9s-3.4-25.9-0.7-27.1s13.9,0.1,13.9,0.1
		c1.5,0,4-4,2-6.6c-2-2.6-8-12.3-5.5-14.3c2.4-1.9,15.7,1.1,15.7,1.1l-37.6-48.1c0,0-3.8-18.1,3.8-26.8c9.3-7.7,8.3-16,8-15.9
		c-1.3-8.4-14-14.5-22.7-6.7c-5.1,6.2-1.7,10.9-1.7,10.9s-13.4,3.6-13.9,6c-0.5,2.3,15.1-0.4,15.1-0.4l-1.5,10.7
		c0,0-30.4,27.7-7.1,51.6c0.2-0.1,0.7-1.1,0.7-1.1s8.2,10.1,16.8,12.3c8.1,8.3,7.3,7,7.3,7s1.6,13.1,0.1,15.6
		c-2-0.6-22.7-1.4-25.7-0.2c-2.8,0.9-13.4,0.3-10.7,17.7c2-4.7,3.8-8.8,3.8-8.8s-0.3,6.3,2.2,8.5c-0.4-6.6,2.4-11.1,2.4-11.1
		s0.5,7.2,2.1,8.3c1.6,1.1,1.6-11.7,10.4-10.6c8.8,1.1,15.2,0.7,15.2,0.7s3,25,2,27.3c-6.4-1.5-21.6,0.6-22.6,4.5
		c8.9-0.5,13.1,0.5,13.1,0.5S434.4,384.3,436.6,388.1L436.6,388.1z"/>
	<path class="st6" d="M440.2,251.7c0,0-22.1,24.4-12.6,43.1c0.5-2.6,0.3-4.2,0.6-4.1c-0.5-0.3,2.7,2.2,2.5,1.7c0.1-1.3-1-4.2-1-4.2
		c1,0.2,2,0.5,3,0.7c-0.6-1.1-1.2-2.2-1.7-3.2c1.4,0.2,2.8,0.3,4.2,0.5c0,0-1.5-4-1-4c0.5,0,3.5,0.2,3.5,0.2
		C431.4,271.1,437.3,261.7,440.2,251.7L440.2,251.7z"/>
	<path class="st6" d="M447.9,230.7c0,0,1.2,8.4-3.4,10.9c-0.7,0.5-3.6,1.5-3.2,3.2c0.5,2.3,1.8,1.9,3.6,1.5
		C449.7,245.4,455.2,235.2,447.9,230.7L447.9,230.7z"/>
	<circle class="st2" cx="438" cy="238" r="1.8"/>
	<path class="st3" d="M432.6,245c-1.2,1-7.3,7.3-1.3,9.7c6.3-1.7,4.6-2.9,6-4.3C437.3,247.5,434.1,246.8,432.6,245z"/>
	<path class="st6" d="M446,305.3c-0.3,1.4-1.7,6.5,0.2,10.4c5.3-2.2,7.8-1.6,9.6-0.4C451.4,311.8,449.7,310.3,446,305.3L446,305.3z"
		/>
	<path class="st7" d="M455.1,329.5l0.3,11.9c0,0,4.1,0.7,6.1,0C463.4,340.6,461.4,333.1,455.1,329.5z"/>
	<path class="st8" d="M485.2,330.9c0,0-7.7-18.5-27.2-23.2c-19.6-4.7-17-25.5-15.4-26.8c0.9-1.8,1.5-4.6,7.1-1.9
		c5.6,2.7,31.6,15.7,35.3,16.4S485.5,331.4,485.2,330.9L485.2,330.9z"/>
	<path class="st3" d="M466.6,307.6c-0.3,0.2,26.2,15.6,18.2,28.9c7.6-5,5.1-13.7,5.1-13.7s6.2,16.1-8.8,23.9
		c1.6,1.4,2.7,1.1,2.7,1.1l-2.6,2.6c0,0-1.2,1.9,8.9-3c-2.8,2.2-3,3.8-3,3.8s0.7,2.1,7.3-3.6c-5.3,5.7-6.5,8.7-6.5,8.6
		c14.4-1.3,45.6-48-9.9-61.8c3,3.1,2.6,2.7,2.6,2.7L466.6,307.6z"/>
	<path class="st9" d="M467.8,303.1c3.6,2.6,4.9,3.4,5.3,4.7c-3.3-0.7-6.3-0.5-6.3-0.5s-7.1-6.8-8.4-7.3c-1,0-6.5-3.5-6.5-3.5
		c-2.8-1.4-5.3-11,4.9-8.2c10.5,5,12,5.4,12,5.4c4.2,1.3,8.4,2.6,12.6,3.9c2.4,2.7,4.8,5.4,7.2,8.1c0,0-12.9-6.4-14.5-6.5
		c3.5,2.9,5.5,6.8,5.5,6.8C475.6,304.8,472.1,303.7,467.8,303.1z"/>
	<path class="st10" d="M417.7,245.9c0,0,12.3-3,13.8-2.6"/>
</g>
</svg>
