<?xml version="1.0" encoding="utf-8"?>
<!-- Generator: Adobe Illustrator 23.0.1, SVG Export Plug-In . SVG Version: 6.00 Build 0)  -->
<svg version="1.1" id="zm" xmlns="http://www.w3.org/2000/svg" xmlns:xlink="http://www.w3.org/1999/xlink" x="0px" y="0px"
	 viewBox="0 0 2100 1400" style="enable-background:new 0 0 2100 1400;" xml:space="preserve">
<style type="text/css">
	.st0{fill:#198A00;}
	.st1{fill:#EF7D00;}
	.st2{fill:#DE2010;}
	.st3{fill:#EF7D00;stroke:#000000;stroke-width:2.25;stroke-linecap:round;stroke-linejoin:round;}
</style>
<path class="st0" d="M0,0h2100v1400H0V0z"/>
<path class="st1" d="M1850,500h250v900h-250V500z"/>
<path d="M1600,500h250v900h-250V500z"/>
<path class="st2" d="M1350,500h250v900h-250V500z"/>
<g>
	<path class="st3" d="M1916.4,168.3c0,0,86-33.7,94.3-40.7c3.8,4.2-34.5,46.6-108.7,62.2c67.4-14.6,125-60.5,136.8-59.1
		c3.4,0.7,2.7,44.8-151.9,83c106.8-25.7,169-73,168.2-67.8c0.8,1-10.6,37.2-104.2,65.3c26.1-5.6,97-45.2,96.2-37.5
		c2.3,3.1-68.6,86.5-196.6,59.4c102.3,24.3,168.6-34.4,178.1-33.4c1.9,0.3-18.9,51.4-147.8,54.6c61.8-5.9,43.9-0.3,43.9-0.3
		s-36.4,26.1-80.3,8.3c34.5,8.7,38.3,9,39,11.8c-2.3,3.5-30.7,8.7-58-4.9c22,8.3,41.7,9.7,42.1,12.9c-0.4,1-14.4,8.3-26.9,3.1
		c-12.5-5.2-127.7-70.2-127.7-70.2l196.2-49.3L1916.4,168.3z"/>
	<path class="st3" d="M1685.7,344.1c-17.3,0-17.7,14.1-17.7,14.1s-1.4,1-0.5,7.8c2.8-4.6,4.3-6.1,4.3-6.1c1.9,0.3,9.8,2.5,22.3-6.5
		c-11.4,10.9-4.6,15-4.6,15s-2.7,8.6,6,10.3c-2.7-3.5-1.1-6.5-1.1-6.5s12.2-1.2,11.4-14.8c0.5,12.3,7.8,15.4,7.8,15.4s0,6.8,7.9,7.4
		c-4.3-3.5-3.3-8.9-3.3-8.9s10.3-6.8,1.6-18.4c5.2-2.8,9.5-10.5,9.5-10.5s-7.1-2.8-10.4-5.1c-1.6-3.1-0.2-19.8-0.2-19.8l-4.3-21.6
		l-12.2,33.7C1702.7,324.8,1703,344.1,1685.7,344.1L1685.7,344.1z"/>
	<path class="st3" d="M1770.9,295.5c0.4,0.3,12.9,13.2,25,12.5c4.5-3.5-9.5-11.1-9.5-12.9c4.9,4.2,25.8,20.5,39,14.6
		c5.3-6.9-9.5-5.9-25.8-24.7c11.4,6.9,39.8,22.2,53,16.3c5.7-5.6-29.6-22.9-41.3-36.5l-30.3-14.2l-41.3,30.9L1770.9,295.5z"/>
	<path class="st3" d="M1724.3,189.9c0,0,14-7.6,70.1-3.8c6.1,0.7,38.3-10.1,48.5-13.2c16.3-2.8,68.2-13.2,82.2-22.9
		c9.8-1-2.7,16.7-15.2,20.8c-13.3,5.6-61.4,20.8-78.4,18.8c20.5,0.3,9.1,15.6-25,8.3c16.3,8.3,10.2,9.7,10.2,9.7s-28.8,1.4-36.4-4.5
		c19.3,6.6,11.4,9,11.4,9s-19.7,1.7-28.8-2.1c14,3.8,6.8,6.3,6.8,6.3s-11.4,1.7-20.8-1.4C1739.5,211.8,1725.1,189.9,1724.3,189.9
		L1724.3,189.9z"/>
	<path class="st3" d="M1746.8,302.7l2.1,34c0,0-1.1,1.7-2.1,2.8c-1,1-26.3-3.6-22.8,14.1c0,7.3,0.2,9.1,5.5,13.2
		c-1.4-4.8-1-8.1-1-8.1s7.1,3.9,14.1-6.8c-4.7,10.6-1.4,14.4-0.3,14.7c1.1,1.9-1.9,10.5,7.6,10.3c-3.6-3.2-1.9-7.8-1.9-7.8
		s10-1.5,6.5-18c3.6-3.3,5.1-0.1,5.1-0.1s1.1,9.9,9.8,7.8c4,2-0.6,7.4-0.6,7.4s6.3,0.1,8.2-4.8c1.9-4.9,4.1-13.8-6.3-17.4
		c-1.3-3.5,4.1-3.8,4.1-3.8s6.6,2,8.5,5.1c1.9,3,1.3-8-7-9.1c-10.1-0.3-10.8-2.2-10.8-2.6c0-0.4-1.7-24.7-2.5-31.7L1746.8,302.7z"/>
	<path class="st3" d="M1782.1,331.7c0.1-1.6-17.3-23.1-12.9-25.8c4.4,0.8,11.7,10.6,17.5,7.4c-1.8-3.8-7-1.7-13-11.4
		c-5.9-11-6.8-27.6-27.7-45.7c13.5,19.1,44.1,30.3,45.4,24.7s-26.9-26.7-25.5-31.7c5.6,10.4,34,33.7,54.9,31.8
		c1.4-4.5-17.1-13.5-21.9-21.9c-13.3-8.2-49.1-36.5-49.8-43c-13-17.4-21.1-22.6-24.9-24.6c-1.5-1.6-1.8-3.1-2.1-4
		c-8.1-17.4,2.6-23.1,8.9-23.9c5.1-0.5,6.6,0.2,10.3-1.5c-4.4-1.6-8.8-3-13.2-4.6c5.7,3.8,20.3,0.5,17.2,11.5
		c6.4-2.2,20-17.1-15.4-20.5c-11.5-12.1-59-19.1-70.9,33.9c0.9,0.7,1.4,1.4,4.5,3.4c-15-6.7-55.4-11.8-70-14
		c-39.4-10.4-80.2-35.5-84.2-32.4c-5.3,2.1,23.8,26.9,22.3,27.5c-25.2-13.5-48.2-23-69.6-31.7c-15.1-5.2-30.1-17.2-31.8-14.9
		c-5.5,10.5,24.1,37,29.7,40.1c5.5,3,48.9,21.5,48.3,21.7c-65.4-27.2-76.4-32.2-79.7-35.3c-5.8-1.2-19.8-18.6-23.7-17.5
		c-2.1,1.9,2.2,29.4,33.4,41.7c5.1,3.4,66.9,23.7,66.3,25.3c-0.2,0.4-70.8-26.7-73.5-27.7c-13.6-4.9-30.3-22.1-33.5-20.1
		c-3,1.8,7.7,20.3,21.5,26.2c7.2,2.9,34.9,15.5,59.8,23.5c1.6,0.5-44.8-16.1-67.1-24.7c-10.1-5.1-14.9-11.6-16.4-10.2
		c-2.3,1.4,3.7,28.8,75.4,44.3c1.9,0.7,25.2-5.1,24.1-4.3c-0.3,0.2-23.2,4.8-25.4,4.6c-2-0.3-14.5,1.4-14.8,2
		c-0.8,1.9,4.5,11.7,41.6,9.6c4.7-0.3,30.4-8.6,28.3-6.8c-1.1,0.9-35,11-37.6,11.2c-2.2,0.3-14.1,1.4-14.6,2.6
		c-0.5,1.6,8.8,8.6,28.7,9.7c17.6,0.9,51-9.9,50.4-9.2c-0.7,0.7-32.2,10.6-33.1,11.2c-1.1,0.6-12.7,1.2-13.1,2
		c-0.9,2,16.7,17.1,68.8,1c-5.2,6.5-30.5,10.9-30.5,12.1c-0.1,0.8,5.6,5.9,14.4,7.7c4.4,0.9,10.5,0.7,16-0.1
		c9.9-1.8,20.4-5.4,33.7-16.7c1.6,3.5-33.2,19.7-31.5,21.2c7.5,6.4,32.6-0.8,34.2-1.7c1.6-0.8,48.2-24.9,48.1-27.7
		c0.7,3.6-60,33.9-59.4,35.1c3.9,5.7,24.7-0.3,25.7-0.8c1-0.5,26.5-13.2,27.2-13.5c0.7-0.4-30,16.5-27.2,19
		c-1.3,10.9,47.9-7.5,51.8-9.8c1.9-1.2-23.6,10.3-23.7,15.8c8.2,12.8,34.6,8.7,38.7,5.9c2-1.4-2.4,9.5-1,8.5c0.5-0.2,5.7-5.9,7.7-10
		c-0.6,3.6-3.5,9.2-5.2,15.6c-1.7,6.4-2.2,13.7-4.5,21.5c-0.5,3.4,16.2-6.6,13.8-30.6c1.4,12.5-5.3,35.8-3.5,37
		c3.5,2.4,13.3-11.6,14.3-21.1c2.9,4.8,9,14.8,14.2,17.1c-0.6-7.3,0.1-6.9-2.3-14.1c1.4-9.5,1.5-22.6,1.9-37.4
		c14.2,24.9,19.9,35.5,15.9,54.6c4.2,1.6,11-13.3,10.4-21C1758.3,329.1,1781.7,332.3,1782.1,331.7L1782.1,331.7z"/>
	<path class="st3" d="M1545.6,173.3c0,0-9.7,6.7-21.7,6.3c3,11,27.9,2.6,27.9,2.6s-12,12.2-20.6,14.2c5.2,3.9,26.8,2.6,30.5,0.6
		c3.6-2,10.1-9.7,10.1-9.7s-22.3,23.6-25.6,23.4c-0.4,2.8,23.4,1.8,28.3-2.4c4.9-4.1,17.4-10.2,17.4-10.2s-32.6,20.9-34.1,20.9
		c12.2,3,36.7-3.5,52.4-12.4c-23.2,14.2-25.3,16.7-37.2,21.5c10.5,2.2,15.9,8.7,51.5-5.5c20.4-8.9,32-25,32-25
		c-12.7,15.6-32.6,28.8-54.8,41.8c-1.3,2.4,23.6,12,55.4-18.3"/>
	<path class="st3" d="M1718.2,239.1c0,0,2.1,9.3,10.7,16.3c8.6,7.1,9.2,14,9.2,14"/>
	<path class="st3" d="M1713.9,178.8c0,0,3,8.3,11.8,13.6c9,5.3,22.6,22.1,23.6,25c1,3.6,6.2,29.4,5.8,32.1"/>
	<path class="st3" d="M1659.2,191.6c0.6,3.2-12.7,19.1,5.6,37.8c-16.5,18.5-16.5,20.9-16.5,20.9s9.2,4.7,25.8-8.3
		c27.3,30.7,18.2,44.8,18.2,44.8"/>
	<path class="st3" d="M1690,265.1c0,0-2.5-3.3,2-15.6c4,4.5,8.5,5.4,10.5,7.2c2,1.8,22.6,4.5,23.9,17.2"/>
	<path class="st3" d="M1714.2,149.4c0-0.9-4.1-9.1-19.6,1.1C1702.9,151,1711.1,155.4,1714.2,149.4z"/>
	<path class="st3" d="M1861.9,186.8c0.8,0.3,46.2,9.4,61.4,4.9c-19.3,23.6-58,7.6-58,7.6c18.9,5.2,19.7,4.9,25.8,9.7
		c1.9,4.5-34.9,2.4-47-3.8c33.7,9.7,34.5,9,35.6,12.9c1.5,5.2-55.3-1.4-60.2-8.3c15.2,10.8,23.5,12.9,31.8,17.7
		c-10.2,4.2-29.2,8.3-64-14.2c45.8,38.2,87.1,35.8,93.6,42.7c-15.9,21.5-77.7-12.9-106.1-30.2c-28.4-17.4,62.1,42,70.5,41
		c-4.2,5.9-34.1,0.7-36-2.1"/>
	<path class="st3" d="M1873.6,226.7c-5.3,0.7-21.2,0.7-23.5,0.3"/>
	<path class="st3" d="M1532.3,167c0,0,34.6,16.7,49.2,15.6c-3.9,3.3-9.7,4.7-9.7,4.7c3.7,1.4,13.7,6.3,29,3.2
		c-3.7,3.3-8.4,7.1-8.4,7.1s13.1,4.5,27.9-2.6c-4.5,5.1-7.1,8.9-7.1,8.9l10.3,0.6"/>
</g>
</svg>
